<svg width="75" height="75" viewBox="0 0 75 75" fill="none" xmlns="http://www.w3.org/2000/svg">
<path d="M0 18.75C0 8.39466 8.39466 0 18.75 0H56.25C66.6053 0 75 8.39466 75 18.75V56.25C75 66.6053 66.6053 75 56.25 75H18.75C8.39466 75 0 66.6053 0 56.25V18.75Z" fill="#1868DB"/>
<g clip-path="url(#clip0_1_5463)">
<path d="M28.0431 48.5107H23.8171C17.4436 48.5107 12.8712 44.6068 12.8712 38.8904H35.5944C36.7721 38.8904 37.5341 39.7269 37.5341 40.9121V63.7778C31.8533 63.7778 28.0431 59.1767 28.0431 52.7632V48.5107ZM39.2661 37.1476H35.0401C28.6666 37.1476 24.0942 33.3134 24.0942 27.597H46.8174C47.9951 27.597 48.8264 28.3638 48.8264 29.5489V52.4146C43.1456 52.4146 39.2661 47.8136 39.2661 41.4001V37.1476ZM50.5584 25.8542H46.3324C39.9589 25.8542 35.3865 21.9503 35.3865 16.2338H58.1097C59.2874 16.2338 60.0494 17.0704 60.0494 18.1858V41.0515C54.3687 41.0515 50.5584 36.4505 50.5584 30.0369V25.8542Z" fill="white"/>
</g>
<defs>
<clipPath id="clip0_1_5463">
<rect width="47.1782" height="47.5439" fill="white" transform="translate(12.8712 16.2346)"/>
</clipPath>
</defs>
</svg>
