<svg width="50" height="55" viewBox="0 0 50 55" fill="none" xmlns="http://www.w3.org/2000/svg">
<path d="M21.6586 0.775609C23.5679 -0.277535 25.8982 -0.258187 27.792 0.833652L42.6848 9.42602L46.2164 11.4636C48.1447 12.5753 49.3382 14.6378 49.3382 16.8597V38.1199C49.3382 40.3506 48.1519 42.404 46.2179 43.5151L32.3682 51.5057C32.3985 51.4205 32.4274 51.3348 32.455 51.2486C32.712 50.452 32.8483 49.6103 32.8483 48.7499V27.4898C32.8483 24.5691 31.2938 21.8758 28.7582 20.4188L26.2001 18.9435L18.4341 14.4649V6.22962C18.4341 5.58069 18.5345 4.94678 18.7245 4.3467C19.1915 2.89436 20.1849 1.63706 21.5439 0.852196L21.548 0.849818C21.5869 0.827342 21.624 0.802413 21.6586 0.775609Z" fill="#FCA700"/>
<path d="M16.97 3.4944L3.12029 11.485C1.1863 12.5961 0 14.6495 0 16.8802V38.1404C0 40.3623 1.19329 42.4247 3.12155 43.5363L6.40529 45.4309L21.5462 54.1664C23.44 55.2581 25.7704 55.2776 27.6796 54.2245C27.7142 54.1977 27.751 54.1729 27.79 54.1504C29.1504 53.3661 30.1453 52.1083 30.6131 50.6554C30.8035 50.0547 30.9041 49.4201 30.9041 48.7705V40.5352L22.89 35.9134L20.5806 34.5817C18.0455 33.1246 16.4899 30.4307 16.4899 27.5103V6.25013C16.4899 5.39096 16.6258 4.55039 16.8822 3.75482C16.91 3.66745 16.9393 3.58063 16.97 3.4944Z" fill="#FCA700"/>
<path fill-rule="evenodd" clip-rule="evenodd" d="M22.89 35.9134L6.40529 45.4309L3.12155 43.5363C1.19329 42.4247 0 40.3623 0 38.1404V16.8802C0 14.6495 1.1863 12.5961 3.12029 11.485L16.97 3.4944C16.9393 3.58063 16.91 3.66745 16.8822 3.75482C16.6258 4.55039 16.4899 5.39096 16.4899 6.25013V27.5103C16.4899 30.4307 18.0455 33.1246 20.5806 34.5817L22.89 35.9134Z" fill="#1868DB"/>
<path fill-rule="evenodd" clip-rule="evenodd" d="M26.2001 18.9435L18.4341 14.4649V6.22962C18.4341 5.58069 18.5345 4.94678 18.7245 4.3467C19.1915 2.89436 20.1849 1.63706 21.5439 0.852196L21.548 0.849818C21.5869 0.827342 21.624 0.802413 21.6586 0.775609C23.5679 -0.277535 25.8982 -0.258187 27.792 0.833652L42.6848 9.42602L26.2001 18.9435Z" fill="#FCA700"/>
<path fill-rule="evenodd" clip-rule="evenodd" d="M46.2164 11.4636L42.6848 9.42602L26.2001 18.9435L28.7582 20.4188C31.2938 21.8758 32.8483 24.5691 32.8483 27.4898V48.7499C32.8483 49.6103 32.712 50.452 32.455 51.2486C32.4274 51.3348 32.3985 51.4205 32.3682 51.5057L46.2179 43.5151C48.1519 42.404 49.3382 40.3506 49.3382 38.1199V16.8597C49.3382 14.6378 48.1447 12.5753 46.2164 11.4636Z" fill="#AF59E0"/>
<path fill-rule="evenodd" clip-rule="evenodd" d="M22.89 35.9134L6.40529 45.4309L21.5462 54.1664C23.44 55.2581 25.7704 55.2776 27.6796 54.2245C27.7142 54.1977 27.751 54.1729 27.79 54.1504C29.1504 53.3661 30.1453 52.1083 30.6131 50.6554C30.8035 50.0547 30.9041 49.4201 30.9041 48.7705V40.5352L22.89 35.9134Z" fill="#6A9A23"/>
</svg>
