<?xml version="1.0" encoding="UTF-8"?>
<svg id="Ebene_1" data-name="Ebene 1" xmlns="http://www.w3.org/2000/svg" xmlns:xlink="http://www.w3.org/1999/xlink" viewBox="0 0 1100 552">
  <defs>
    <style>
      .cls-1, .cls-2, .cls-3, .cls-4, .cls-5, .cls-6, .cls-7, .cls-8, .cls-9, .cls-10, .cls-11, .cls-12 {
        fill: none;
      }

      .cls-13, .cls-14, .cls-15, .cls-16 {
        fill: #9ca3ec;
      }

      .cls-17 {
        filter: url(#drop-shadow-3);
      }

      .cls-18 {
        filter: url(#drop-shadow-2);
      }

      .cls-19 {
        filter: url(#drop-shadow-6);
      }

      .cls-20 {
        filter: url(#drop-shadow-5);
      }

      .cls-21 {
        filter: url(#drop-shadow-4);
      }

      .cls-2 {
        stroke-width: 2.09px;
      }

      .cls-2, .cls-14, .cls-3, .cls-4, .cls-22, .cls-5, .cls-6, .cls-7, .cls-8, .cls-23, .cls-9, .cls-24, .cls-25, .cls-26, .cls-10, .cls-27, .cls-11, .cls-15, .cls-16, .cls-12, .cls-28, .cls-29, .cls-30 {
        stroke-linecap: round;
      }

      .cls-2, .cls-14, .cls-4, .cls-22, .cls-5, .cls-6, .cls-7, .cls-23, .cls-9, .cls-27, .cls-11, .cls-15, .cls-16, .cls-12, .cls-28, .cls-29, .cls-30 {
        stroke: #010920;
      }

      .cls-2, .cls-14, .cls-4, .cls-22, .cls-5, .cls-7, .cls-9, .cls-24, .cls-25, .cls-26, .cls-10, .cls-27, .cls-15, .cls-16, .cls-12, .cls-28, .cls-29, .cls-30 {
        stroke-linejoin: round;
      }

      .cls-14, .cls-31, .cls-3, .cls-32, .cls-22, .cls-7, .cls-8, .cls-24, .cls-25, .cls-26, .cls-10, .cls-33, .cls-11, .cls-34, .cls-16, .cls-35, .cls-29 {
        stroke-width: 3.75px;
      }

      .cls-14, .cls-8, .cls-25, .cls-33, .cls-34 {
        fill-rule: evenodd;
      }

      .cls-31, .cls-3, .cls-32, .cls-6, .cls-8, .cls-23, .cls-33, .cls-34, .cls-35 {
        stroke-miterlimit: 10;
      }

      .cls-31, .cls-3, .cls-32, .cls-8, .cls-24, .cls-25, .cls-26, .cls-10, .cls-33, .cls-34, .cls-35 {
        stroke: #010920;
      }

      .cls-31, .cls-22, .cls-24, .cls-34, .cls-36 {
        fill: #010920;
      }

      .cls-4, .cls-28 {
        stroke-width: 1.88px;
      }

      .cls-32, .cls-23, .cls-37, .cls-38, .cls-33, .cls-29, .cls-30 {
        fill: #fff;
      }

      .cls-5, .cls-6, .cls-23, .cls-9, .cls-27, .cls-15, .cls-30 {
        stroke-width: 2.81px;
      }

      .cls-9 {
        stroke-dasharray: 5.62 13.11;
      }

      .cls-25, .cls-26, .cls-39, .cls-35 {
        fill: #62c5ae;
      }

      .cls-40 {
        fill: #bee600;
      }

      .cls-41, .cls-28 {
        fill: #010920;
      }

      .cls-38 {
        filter: url(#drop-shadow-1);
      }

      .cls-27, .cls-42 {
        fill: #62c5ae;
      }

      .cls-12 {
        stroke-width: 1.67px;
      }

      .cls-43 {
        clip-path: url(#clippath);
      }
    </style>
    <filter id="drop-shadow-1" x="0" y="0" width="1100" height="552" filterUnits="userSpaceOnUse">
      <feOffset dx="0" dy="0"/>
      <feGaussianBlur result="blur" stdDeviation="2"/>
      <feFlood flood-color="#000" flood-opacity=".5"/>
      <feComposite in2="blur" operator="in"/>
      <feComposite in="SourceGraphic"/>
    </filter>
    <clipPath id="clippath">
      <rect class="cls-1" x="860.5" y="274.98" width="51.99" height="13.59"/>
    </clipPath>
    <filter id="drop-shadow-2" x="61" y="282" width="258" height="222" filterUnits="userSpaceOnUse">
      <feOffset dx="0" dy="0"/>
      <feGaussianBlur result="blur-2" stdDeviation="2"/>
      <feFlood flood-color="#000" flood-opacity=".5"/>
      <feComposite in2="blur-2" operator="in"/>
      <feComposite in="SourceGraphic"/>
    </filter>
    <filter id="drop-shadow-3" x="78.17" y="299.12" width="224.14" height="188.08" filterUnits="userSpaceOnUse">
      <feOffset dx="0" dy="0"/>
      <feGaussianBlur result="blur-3" stdDeviation="1.67"/>
      <feFlood flood-color="#3b3b39" flood-opacity=".5"/>
      <feComposite in2="blur-3" operator="in"/>
      <feComposite in="SourceGraphic"/>
    </filter>
    <filter id="drop-shadow-4" x="79.21" y="300.16" width="222.06" height="185.99" filterUnits="userSpaceOnUse">
      <feOffset dx="0" dy="0"/>
      <feGaussianBlur result="blur-4" stdDeviation=".05"/>
      <feFlood flood-color="#3b3b39" flood-opacity=".5"/>
      <feComposite in2="blur-4" operator="in"/>
      <feComposite in="SourceGraphic"/>
    </filter>
    <filter id="drop-shadow-5" x="250" y="259" width="67" height="93" filterUnits="userSpaceOnUse">
      <feOffset dx="0" dy="0"/>
      <feGaussianBlur result="blur-5" stdDeviation="1"/>
      <feFlood flood-color="#000" flood-opacity=".5"/>
      <feComposite in2="blur-5" operator="in"/>
      <feComposite in="SourceGraphic"/>
    </filter>
    <filter id="drop-shadow-6" x="74" y="460" width="79" height="71" filterUnits="userSpaceOnUse">
      <feOffset dx="0" dy="0"/>
      <feGaussianBlur result="blur-6" stdDeviation="1"/>
      <feFlood flood-color="#000" flood-opacity=".5"/>
      <feComposite in2="blur-6" operator="in"/>
      <feComposite in="SourceGraphic"/>
    </filter>
  </defs>
  <path class="cls-38" d="M1077.75,350.2c0-.11,0-.22,0-.34v-22.11c0-7.88-4.94-14.86-12.22-17.56-.82-1.54-1.82-3-2.97-4.32.98-3.2,1.34-6.53,1.07-9.83,8.68-7.88,12.37-18.32,10.14-28.95-3.5-16.7-21.05-29.9-44.73-33.62-1.06-.16-2.15-.24-3.21-.2-.41-.1-.82-.2-1.24-.27.11-.34.22-.69.31-1.04l1.5-5.45,5.45-1.5c8.11-2.22,13.77-9.65,13.77-18.06s-5.66-15.83-13.77-18.06l-5.46-1.5-1.5-5.44c-2.22-8.11-9.65-13.77-18.06-13.77-6.38,0-12.2,3.27-15.61,8.4v-4.94c0-7.15-2.59-13.81-7.17-18.54v-32.96c4.75-5.03,7.45-11.72,7.45-18.62,0-14.95-12.17-27.11-27.13-27.11h-15.74c-14.96,0-27.13,12.16-27.13,27.11,0,.97.05,1.93.15,2.88l-.82-.34c-3.01-1.23-5.82-2.27-8.35-3.11l-2.38-.79h-.19c-5.22-1.64-10.66-3-16.18-4.03l-1.38-.7h-2.7c-7.8-1.23-15.74-1.86-23.61-1.86-2.37,0-4.8.07-7.66.21l-.76.04c-5.06.28-10.08.81-14.96,1.57l-1.27.21c-2.09.35-4.14.73-6.04,1.13,0,0-.94.19-1.27.26-2.06.45-4.1.95-6.23,1.52-.66.17-1.32.36-1.97.55l-.61.17c-1.29.37-2.57.76-3.81,1.16-1.46.46-2.92.96-4.59,1.56-1.06.38-2.11.76-3.12,1.15-1.25.48-2.48.99-3.75,1.53-.48.21-2.38,1.03-2.39,1.04-.84.36-1.68.72-2.41,1.07-.41.19-.81.4-1.2.62-.45.22-.91.45-1.37.69-1.32-6.91-6.48-12.65-13.44-14.56l-1.09-.3-.3-1.08c-2.24-8.08-9.66-13.73-18.05-13.73-4.68,0-9.05,1.75-12.4,4.71-2.73-13.97-9.43-34.09-25.8-45.93-10.74-7.75-23.61-10.84-38.1-8.98-4.06-1.3-8.53-1.39-12.67-.23l-3.55.99c-1.91.53-3.74,1.33-5.43,2.35-3.85-5.83-8.4-10.66-13.57-14.4-10.72-7.75-23.53-10.85-38.1-8.98-4.06-1.3-8.49-1.4-12.68-.23l-3.52.99c-3.64,1.02-6.96,2.95-9.63,5.61-10.25,4.06-18.36,9.28-24.17,15.56-7.19-2.15-15.01-2.73-23.32-1.66-4.06-1.3-8.5-1.39-12.67-.23l-3.54.99c-1.91.53-3.74,1.33-5.43,2.35-3.85-5.83-8.4-10.66-13.57-14.4-10.73-7.75-23.54-10.85-38.1-8.98-4.06-1.3-8.46-1.4-12.68-.23l-3.52.99c-3.64,1.02-6.95,2.95-9.63,5.61-20.46,8.1-32.54,21.09-34.04,36.63-.03.32-.05.66-.07.98l-21.6.28c-2.12-5.36-6.65-9.61-12.44-11.2l-1.1-.3-.29-1.06c-2.23-8.09-9.66-13.75-18.05-13.75s-15.83,5.66-18.06,13.77l-.3,1.08-1.08.3c-7.33,2.01-12.67,8.28-13.62,15.68-2.51-1.24-5.32-1.93-8.25-1.93-5.6,0-11.04,2.61-14.54,6.94-.3.37-.6.76-.96,1.27l-1.1,1.67-.46,1.17c-.4.86-.73,1.77-.99,2.69l-1.5,5.42-5.49,1.51c-2.15.59-4.13,1.55-5.88,2.8v-11.51c0-16.79-13.66-30.45-30.45-30.45H36.52c-16.79,0-30.45,13.66-30.45,30.45v276.29c0,16.79,13.66,30.45,30.45,30.45h138.73c-.03.55-.05,1.11-.05,1.66v143.18c0,15.11,12.3,27.41,27.41,27.41h863.76c15.11,0,27.41-12.3,27.41-27.41v-143.18c0-10.85-6.33-20.52-16.04-24.94Z"/>
  <path class="cls-5" d="M198.07,172.98c-1.06-1.75,1.69-5.35,6.13-8.03,4.45-2.68,8.9-3.43,9.96-1.67"/>
  <path class="cls-27" d="M206.41,174.53c3.21,0,5.82-2.6,5.82-5.82s-2.6-5.82-5.82-5.82-5.82,2.6-5.82,5.82,2.6,5.82,5.82,5.82Z"/>
  <path class="cls-5" d="M214.06,163.15c1.06,1.75-1.69,5.35-6.13,8.03-4.45,2.68-8.9,3.43-9.96,1.67"/>
  <g>
    <rect class="cls-26" x="24.79" y="56.07" width="244.33" height="299.74" rx="11.73" ry="11.73"/>
    <rect class="cls-29" x="34.75" y="67.15" width="224.42" height="277.58" rx="3.41" ry="3.41"/>
    <path class="cls-15" d="M157.12,101.94c-10.74-.1-19.58,13.66-19.72,29.13-.13,13.35,7.31,26.51,14.08,36.82,2.74,4.17,7.22,4.22,10.05.09,6.97-10.18,14.64-23.2,14.76-36.55.14-15.48-8.44-29.4-19.17-29.49Z"/>
    <path class="cls-15" d="M202.53,127.12c-7.09-7.23-22.14-3.95-32.56,6.27-8.98,8.81-12.79,22.54-15.14,33.93-.95,4.6,2.01,7.62,6.63,6.75,11.42-2.14,25.21-5.7,34.19-14.52,10.41-10.22,13.96-25.21,6.87-32.44Z"/>
    <path class="cls-15" d="M210.66,177.98c1.26-8.66-8.89-17.3-21.36-19.12-10.76-1.56-22.2,3-31.26,7.35-3.67,1.76-4.19,5.38-1.18,8.1,7.46,6.74,17.12,14.36,27.88,15.93,12.48,1.81,24.65-3.59,25.91-12.26Z"/>
    <path class="cls-15" d="M113.69,158.8c8.81,8.98,22.53,12.8,33.92,15.15,4.6.95,7.62-2.01,6.75-6.63-2.14-11.43-5.7-25.22-14.52-34.2-10.22-10.41-25.2-13.96-32.43-6.87-7.22,7.09-3.94,22.15,6.27,32.56Z"/>
    <path class="cls-15" d="M124.02,189.67c10.79-1.36,20.6-8.81,28.18-15.4,3.07-2.67,2.61-6.3-1.03-8.12-8.98-4.51-20.32-9.28-31.12-7.92-12.51,1.58-22.8,10.03-21.71,18.71,1.09,8.69,13.17,14.31,25.68,12.74Z"/>
    <path class="cls-37" d="M170.66,253.27l.05.41,5.16.2,4.11.4s3.66.24,4.8,3.17c1.5,3.88.14,7.66.14,7.66,0,0-1.76,4.22-7.06,3.56l-5.28-.43.16,1.25c1.07.25,2.84.94,3.5,2.88,1.29,3.8-.08,7.6-.08,7.6,0,0-.52,1.24-1.78,2.31l.09.7-2.93,1s8.16-.75,6.63,8.09c-2.31,4.65-7.48,4.4-7.48,4.4l-25.12,1.15,27.57-.52c-5.18-.09-18.01-.25-23.89,1.48-3.25.97-8.11,1.33-13.37.13,0,0-2.4-.77-5.14-1.82l.02.06-33.39,1.59-9.92-30.45,6.06-19.69,19.56,1.24.3.8c1.33-5.51,7.07-6.96,7.07-6.96l2.43-1.22c4.12-1.78,9.4-7.85,9.4-7.85l2.3-3.4s7.4-15.57,9.35-19.7c1.95-4.13,12.63-4.51,12.33,3.92-.3,7.46-.02,5.24-.91,14.62-.91,3.86-.7,10.84,8.65,8.61,0,0,7.96,7.85,6.69,14.83h0Z"/>
    <path class="cls-5" d="M132.05,234.41s-2.74,4.96-6.86,6.74"/>
    <path class="cls-5" d="M139.84,259.04s7.43-6.25,6.76-16.02"/>
    <path class="cls-5" d="M172.93,297.1c-5.18-.09-18.01-.25-23.89,1.48-3.25.97-8.11,1.33-13.37.13,0,0-10.7-3.44-12.7-5.59"/>
    <path class="cls-5" d="M177.65,268.68l-25.95-2.11s-5.34-1.84-3.59-8.23c.96-5.78,8.14-5.19,8.14-5.19l19.42.75,4.11.4s3.66.24,4.8,3.17c1.5,3.87.14,7.66.14,7.66,0,0-1.76,4.22-7.06,3.56h0Z"/>
    <path class="cls-5" d="M169.29,283.72l-24.06-1.36s-4.92-1.68-3.1-8.07c1.06-5.77,7.71-5.38,7.71-5.38l18.03.2,3.8.28s3.39.13,4.36,3.01c1.29,3.8-.08,7.6-.08,7.6,0,0-1.75,4.24-6.66,3.73Z"/>
    <path class="cls-42" d="M144.47,210.97c-.26.34-.52.67-.72,1.09-1.14,2.42-4.41,10.37-6.82,15.6"/>
    <path class="cls-5" d="M134.35,231.01s7.4-15.57,9.35-19.7c1.95-4.13,12.63-4.51,12.33,3.92-.3,7.46-.02,5.24-.91,14.62-.91,3.86-.7,10.84,8.65,8.61"/>
    <path class="cls-5" d="M112.85,249.65l-45.11-2.6"/>
    <path class="cls-5" d="M130.54,296.96l-72.96,2.61"/>
    <path class="cls-5" d="M120.22,243.48s-9.11,2.16-9.49,16.58"/>
    <path class="cls-41" d="M93.98,248.57s-16.84,32.11,16.32,49.16l-15.59.22s-18.96-23.25-.73-49.38Z"/>
    <path class="cls-5" d="M159.9,256.77s1.93,4.75-.57,6.84"/>
    <path class="cls-37" d="M149.66,245.19l23.09-9.31s7.67-3.83,9.93,3.19c2.25,7.02-1.66,9.56-9.8,11.7-8.14,2.13-19.49,8.13-24.67,1.87-5.17-6.26,1.45-7.45,1.45-7.45Z"/>
    <path class="cls-5" d="M158.92,240.55l15.03-5.47s5.28-1.62,7.55,1c2.27,2.63,4.93,10.87-3.63,13.07"/>
    <path class="cls-5" d="M155.7,241.76l-5.5,2.47s-5.26,2.93-3.09,7.07c2.8,5.51,10.91,3.32,10.91,3.32,0,0,16.52-4.66,16.64-4.55"/>
    <path class="cls-5" d="M159.36,243.02s2.04,2.39,1.23,7.51"/>
    <path class="cls-5" d="M152.48,287.77s.58,3.6-.81,6.32"/>
    <path class="cls-5" d="M152.54,272.48s1.25,3.77-.79,6.32"/>
    <path class="cls-5" d="M110.35,274.44s-1.15,11.37,8.2,15.82"/>
    <path class="cls-5" d="M173.18,283.66s5.65,1.14,5.35,5.57c-.52,7.73-4.83,7.78-4.83,7.78l-26.89-.27s-7.17.66-5.83-7.11c2.03-4.09,6.58-3.88,6.58-3.88l21.55-1.48"/>
    <path class="cls-5" d="M146.18,297.6l-2.73,41.01"/>
    <path class="cls-5" d="M154.59,170.92l-4.89,73.56"/>
    <path class="cls-5" d="M147.13,283.2l-.12,1.82"/>
    <path class="cls-5" d="M148.44,263.57l-.35,5.23"/>
    <path class="cls-42" d="M152.61,305.5c-5.05,4.08-4.51,11.94.95,15.44,9.47,6.06,20.23-2.94,24.32-19.06-5.66-1.51-18.76-1.65-25.27,3.62Z"/>
    <path class="cls-5" d="M152.61,305.5c-5.05,4.08-4.51,11.94.95,15.44,7.44,4.76,15.68.22,20.85-9.76M159.34,302.24c6.55-1.83,14.47-1.46,18.54-.37-.41,1.61-.88,3.15-1.42,4.62"/>
    <path class="cls-5" d="M164,310.65c-.63.63-1.71,1.48-3.23,2.36M145.69,317.23c4.45,1.49,6.49.32,10.94-1.83"/>
    <path class="cls-42" d="M158.75,187.12c-3.62,2.93-3.24,8.58.68,11.09,6.8,4.36,14.53-2.11,17.47-13.69-4.07-1.09-13.47-1.18-18.16,2.61h0Z"/>
    <path class="cls-5" d="M158.75,187.12c-3.62,2.94-3.24,8.58.68,11.09,5.34,3.42,11.27.16,14.98-7.02M163.59,184.78c4.71-1.32,10.4-1.05,13.32-.27-.29,1.16-.64,2.27-1.02,3.32"/>
    <path class="cls-5" d="M166.93,190.83c-.45.45-1.23,1.06-2.32,1.7M153.79,195.55c3.2,1.07,4.66.23,7.85-1.31"/>
    <path class="cls-42" d="M148.51,195.36c2.93,3.09,1.9,8.16-1.96,9.96-6.68,3.12-12.9-3.67-14.16-14.51,3.82-.49,12.34.56,16.12,4.55Z"/>
    <path class="cls-5" d="M133.84,197.16c2.5,6.94,7.46,10.61,12.71,8.16,3.85-1.8,4.89-6.87,1.96-9.96M132.91,193.94c-.22-1-.4-2.04-.52-3.13,2.75-.35,7.93.09,12.03,1.86"/>
    <path class="cls-5" d="M142.55,199.55c-.91-.71-1.54-1.36-1.89-1.82M145.04,201.46c2.7,1.78,3.93,2.72,6.95,2.14"/>
    <path class="cls-27" d="M154.06,176.06c7.14,0,12.92-5.79,12.92-12.92s-5.78-12.92-12.92-12.92-12.92,5.79-12.92,12.92,5.78,12.92,12.92,12.92Z"/>
    <path class="cls-30" d="M151.51,164.16c1.96-.14,3.43-1.79,3.3-3.68-.14-1.89-1.84-3.3-3.8-3.16-1.96.14-3.43,1.79-3.3,3.68.14,1.89,1.84,3.3,3.8,3.16Z"/>
    <path class="cls-30" d="M166.53,140.73c2.46,0,4.45-1.99,4.45-4.45s-1.99-4.45-4.45-4.45-4.45,1.99-4.45,4.45,1.99,4.45,4.45,4.45Z"/>
    <path class="cls-23" d="M115.72,159.8l-1.56.93c-1.1.65-2.95.79-4.13.31l-9.62-3.96c-1.18-.49-1.25-1.41-.15-2.07l1.56-.93c1.1-.65,2.95-.79,4.13-.31l9.62,3.96c1.18.49,1.25,1.41.15,2.07Z"/>
    <path class="cls-37" d="M107.76,167.03l7.6,3.13c.28.12.61.09.87-.07l7.06-4.2c.16-.09.25-.26.23-.45-.1-1.44-.58-7.67-.69-9.1-.02-.18-.13-.34-.29-.4l-7.6-3.13c-.28-.12-.61-.09-.87.07l-7.06,4.2c-.16.09-.25.26-.23.45.1,1.43.57,7.67.68,9.1.01.18.13.34.29.4h0Z"/>
    <path class="cls-5" d="M122.08,156.51l-6.81,4.06c-.12.07-.27.08-.4.03l-7.34-3.02"/>
    <path class="cls-5" d="M115.15,161.26l.13,1.77"/>
    <path class="cls-5" d="M115.63,167.75l.13,1.87"/>
    <path class="cls-6" d="M123.31,162.61c.14,1.83.16,2.15.22,2.84"/>
    <path class="cls-6" d="M118.98,154.48l3.56,1.47c.16.07.28.22.29.4.04.58.05.68.16,2.18"/>
    <path class="cls-6" d="M107.05,161.06c-.05-.73-.24-3.2-.26-3.54-.01-.18.07-.35.23-.45"/>
    <path class="cls-6" d="M108.89,167.49l-1.12-.46c-.16-.07-.28-.22-.29-.4-.02-.28-.06-.75-.1-1.33"/>
    <path class="cls-6" d="M120.89,167.38l-4.66,2.71c-.26.16-.58.18-.87.07l-3.1-1.34"/>
    <path class="cls-6" d="M115.91,153.21l-.97-.4c-.28-.12-.61-.09-.87.07l-6.9,3.94"/>
    <path class="cls-23" d="M134.67,167.43l-1.56.93c-1.1.65-2.95.79-4.13.31l-9.62-3.96c-1.18-.49-1.25-1.41-.15-2.07l1.56-.93c1.1-.65,2.95-.79,4.13-.31l9.62,3.96c1.18.49,1.25,1.41.15,2.07Z"/>
    <path class="cls-13" d="M196.2,138.46l-5.66,3.81-6.1-2.1-7.73,4.6.69,6.43"/>
    <path class="cls-5" d="M196.2,138.46l-5.66,3.81-6.1-2.1-7.73,4.6.69,6.43"/>
    <path class="cls-13" d="M124.98,154.52s10.05-7.75,6.28-21.48l-6.28,21.48Z"/>
    <path class="cls-9" d="M124.98,154.52s10.05-7.75,6.28-21.48"/>
    <path class="cls-5" d="M114.12,214l-6.28,1.74c-2.96.82-5.26,3.11-6.07,6.07l-1.74,6.28-1.74-6.28c-.82-2.96-3.11-5.26-6.07-6.07l-6.28-1.74,6.28-1.74c2.96-.82,5.26-3.11,6.07-6.07l1.74-6.28,1.74,6.28c.82,2.96,3.11,5.26,6.07,6.07"/>
    <path class="cls-5" d="M200.45,223.15l-5.26,1.45c-2.48.68-4.4,2.61-5.08,5.08l-1.45,5.26-1.45-5.26c-.68-2.48-2.61-4.4-5.08-5.08l-5.26-1.45,5.26-1.45c2.48-.68,4.4-2.61,5.08-5.08l1.45-5.26,1.45,5.26c.68,2.48,2.61,4.4,5.08,5.08"/>
    <path class="cls-5" d="M67.47,195.05l4.02-1.12c2.74-.76,4.88-2.88,5.63-5.63l1.12-4.02,1.12,4.02c.76,2.74,2.88,4.88,5.63,5.63l4.02,1.12-4.02,1.12c-2.74.76-4.88,2.88-5.63,5.63l-1.12,4.02-1.12-4.02c-.49-1.82-1.61-3.38-3.11-4.44"/>
    <path class="cls-5" d="M200.06,107.62l2.83-.79c1.93-.54,3.44-2.04,3.97-3.97l.79-2.83.79,2.83c.54,1.93,2.04,3.44,3.97,3.97l2.83.79-2.83.79c-1.93.54-3.44,2.04-3.97,3.97l-.79,2.83-.79-2.83c-.35-1.29-1.14-2.38-2.19-3.13"/>
    <path class="cls-5" d="M117.27,316.38l2.83-.79c1.93-.54,3.44-2.04,3.97-3.97l.79-2.83.79,2.83c.54,1.93,2.04,3.44,3.97,3.97l2.83.79-2.83.79c-1.93.54-3.44,2.04-3.97,3.97l-.79,2.83-.79-2.83c-.35-1.29-1.14-2.38-2.19-3.13"/>
    <path class="cls-5" d="M125.44,90.14l4.02-1.12c2.74-.76,4.88-2.88,5.63-5.63l1.12-4.02,1.12,4.02c.76,2.74,2.88,4.88,5.63,5.63l4.02,1.12-4.02,1.12c-2.74.76-4.88,2.88-5.63,5.63l-1.12,4.02-1.12-4.02c-.49-1.82-1.61-3.38-3.11-4.44"/>
  </g>
  <rect class="cls-32" x="286.82" y="156.01" width="566.83" height="21.26" rx="10.53" ry="10.53"/>
  <g>
    <path class="cls-8" d="M308.32,156.01c-5.79,0-8.66,4.74-8.66,10.53v.21c0,5.79,2.86,10.53,8.66,10.53v9.4l-49.35,19.74"/>
    <line class="cls-3" x1="308.32" y1="186.68" x2="356.96" y2="205.71"/>
  </g>
  <g>
    <path class="cls-8" d="M454.95,156.01c-5.79,0-8.66,4.74-8.66,10.53v.21c0,5.79,2.86,10.53,8.66,10.53v9.4l-49.35,19.74"/>
    <line class="cls-3" x1="454.95" y1="186.68" x2="503.59" y2="205.71"/>
  </g>
  <path class="cls-25" d="M282.06,198.18c-1.8-3.01-5.46-4.35-8.78-3.2-13.39,4.65-38.43,14.74-43.08,18.89-1.58,1.41-25.8,59.37-35.03,72.13-.94,1.51,31.19,13.85,44.84,19.11,2.87,1.11,4.75,3.86,4.75,6.93v91.01c0,4.1,3.33,7.43,7.43,7.43h113.73c4.1,0,7.43-3.33,7.43-7.43v-91.01c0-3.07,1.88-5.82,4.75-6.93,13.66-5.27,45.78-17.6,44.84-19.11-9.23-12.77-33.44-70.73-35.03-72.13-4.66-4.14-29.69-14.23-43.09-18.89-3.31-1.15-6.97.19-8.78,3.2-10.19,17.02-43.81,17.03-54,0Z"/>
  <g>
    <path class="cls-8" d="M389.39,156.01c-5.79,0-8.66,4.74-8.66,10.53v.21c0,5.79,2.86,10.53,8.66,10.53v28.14l-49.35,19.74"/>
    <line class="cls-3" x1="389.39" y1="205.42" x2="438.03" y2="224.45"/>
  </g>
  <g>
    <path class="cls-8" d="M525.27,156.01c-5.79,0-8.66,4.74-8.66,10.53v.21c0,5.79,2.86,10.53,8.66,10.53v28.14l-49.35,19.74"/>
    <line class="cls-3" x1="525.27" y1="205.42" x2="573.91" y2="224.45"/>
  </g>
  <path class="cls-14" d="M353.79,218.45c-1.8-3.01-5.46-4.35-8.78-3.2-13.39,4.65-38.43,14.74-43.08,18.89-1.58,1.41-25.8,59.37-35.03,72.13-.94,1.51,31.19,13.85,44.84,19.11,2.87,1.11,4.75,3.86,4.75,6.93v91.01c0,4.1,3.33,7.43,7.43,7.43h113.73c4.1,0,7.43-3.33,7.43-7.43v-91.01c0-3.07,1.88-5.82,4.75-6.93,13.66-5.27,45.78-17.6,44.84-19.11-9.23-12.77-33.44-70.73-35.03-72.13-4.66-4.14-29.69-14.23-43.09-18.89-3.31-1.15-6.97.19-8.78,3.2-10.19,17.02-43.81,17.03-54,0Z"/>
  <path class="cls-34" d="M425.53,198.18c-1.8-3.01-5.46-4.35-8.78-3.2-13.39,4.65-38.43,14.74-43.08,18.89-1.58,1.41-25.8,59.37-35.03,72.13-.94,1.51,31.19,13.85,44.84,19.11,2.87,1.11,4.75,3.86,4.75,6.93v91.01c0,4.1,3.33,7.43,7.43,7.43h113.73c4.1,0,7.43-3.33,7.43-7.43v-91.01c0-3.07,1.88-5.82,4.75-6.93,13.66-5.27,45.78-17.6,44.84-19.11-9.23-12.77-33.44-70.73-35.03-72.13-4.66-4.14-29.69-14.23-43.09-18.89-3.31-1.15-6.97.19-8.78,3.2-10.19,17.02-43.81,17.03-54,0Z"/>
  <path class="cls-33" d="M497.26,218.45c-1.8-3.01-5.46-4.35-8.78-3.2-13.39,4.65-38.43,14.74-43.08,18.89-1.58,1.41-25.8,59.37-35.03,72.13-.94,1.51,31.19,13.85,44.84,19.11,2.87,1.11,4.75,3.86,4.75,6.93v91.01c0,4.1,3.33,7.43,7.43,7.43h113.73c4.1,0,7.43-3.33,7.43-7.43v-91.01c0-3.07,1.88-5.82,4.75-6.93,13.66-5.27,45.78-17.6,44.84-19.11-9.23-12.77-33.44-70.73-35.03-72.13-4.66-4.14-29.69-14.23-43.09-18.89-3.31-1.15-6.97.19-8.78,3.2-10.19,17.02-43.81,17.03-54,0Z"/>
  <g>
    <g>
      <path class="cls-32" d="M500.64,33.14c-7.5-5.42-16.73-7.15-27.47-5.16-1.55.29-3.21.13-4.51-.75-.79-.53-1.79-.73-2.78-.45l-3.54.99c-.81.23-1.47.73-1.9,1.38-.76,1.15-1.78,2.09-3.08,2.55-7.71,2.73-23.91,9.86-25.09,22.09-.94,9.64,1.26,22.76,3.03,31.24.56,2.69-.85,5.4-3.37,6.49-9.61,4.17-24.84,11.71-23.54,17.08.27,1.1,1.12,2.04,2.52,2.79,7.23,3.83,29.83,2.98,45.07-1.27,1.7-.48,3.32-.99,4.8-1.55,14.11-5.29,38.9-18.2,44.37-24.24.53-.59,1.15-1.08,1.88-1.4,2.74-1.18,6.69-3.02,9.57-4.38,2.3-1.08,3.62-3.54,3.27-6.06-1.25-8.92-5.54-29.47-19.23-39.36h0Z"/>
      <path class="cls-10" d="M441.22,90.53s8.64,6.93,50.98-5.48"/>
      <path class="cls-26" d="M459.8,32.08s4.92,1.2,11.21-2.76"/>
      <path class="cls-10" d="M475.73,32.46s19.04-3.05,28.92,46.18"/>
    </g>
    <g>
      <path class="cls-31" d="M573.95,53.41c-7.5-5.42-16.73-7.15-27.47-5.16-1.55.29-3.21.13-4.51-.75-.79-.53-1.79-.73-2.78-.45l-3.54.99c-.81.23-1.47.73-1.9,1.38-.76,1.15-1.78,2.09-3.08,2.55-7.71,2.73-23.91,9.86-25.09,22.09-.94,9.64,1.26,22.76,3.03,31.24.56,2.69-.85,5.4-3.37,6.49-9.61,4.17-24.84,11.71-23.54,17.08.27,1.1,1.12,2.04,2.52,2.79,7.23,3.83,29.83,2.98,45.07-1.27,1.7-.48,3.32-.99,4.8-1.55,14.11-5.29,38.9-18.2,44.37-24.24.53-.59,1.15-1.08,1.88-1.4,2.74-1.18,6.69-3.02,9.57-4.38,2.3-1.08,3.62-3.54,3.27-6.06-1.25-8.92-5.54-29.47-19.23-39.36h0Z"/>
      <path class="cls-10" d="M514.54,110.8s8.64,6.93,50.98-5.48"/>
      <path class="cls-26" d="M533.12,52.35s4.92,1.2,11.21-2.76"/>
      <path class="cls-10" d="M549.05,52.73s19.04-3.05,28.92,46.18"/>
    </g>
    <g>
      <path class="cls-16" d="M647.27,33.14c-7.5-5.42-16.73-7.15-27.47-5.16-1.55.29-3.21.13-4.51-.75-.79-.53-1.79-.73-2.78-.45l-3.54.99c-.81.23-1.47.73-1.9,1.38-.76,1.15-1.78,2.09-3.08,2.55-7.71,2.73-23.91,9.86-25.09,22.09-.94,9.64,1.26,22.76,3.03,31.24.56,2.69-.85,5.4-3.37,6.49-9.61,4.17-24.84,11.71-23.54,17.08.27,1.1,1.12,2.04,2.52,2.79,7.23,3.83,29.83,2.98,45.07-1.27,1.7-.48,3.32-.99,4.8-1.55,14.11-5.29,38.9-18.2,44.37-24.24.53-.59,1.15-1.08,1.88-1.4,2.74-1.18,6.69-3.02,9.57-4.38,2.3-1.08,3.62-3.54,3.27-6.06-1.25-8.92-5.54-29.47-19.23-39.36h0Z"/>
      <path class="cls-10" d="M587.85,90.53s8.64,6.93,50.98-5.48"/>
      <path class="cls-26" d="M606.43,32.08s4.92,1.2,11.21-2.76"/>
      <path class="cls-10" d="M622.36,32.46s19.04-3.05,28.92,46.18"/>
    </g>
    <g>
      <path class="cls-26" d="M720.58,53.41c-7.5-5.42-16.73-7.15-27.47-5.16-1.55.29-3.21.13-4.51-.75-.79-.53-1.79-.73-2.78-.45l-3.54.99c-.81.23-1.47.73-1.9,1.38-.76,1.15-1.78,2.09-3.08,2.55-7.71,2.73-23.91,9.86-25.09,22.09-.94,9.64,1.26,22.76,3.03,31.24.56,2.69-.85,5.4-3.37,6.49-9.61,4.17-24.84,11.71-23.54,17.08.27,1.1,1.12,2.04,2.52,2.79,7.23,3.83,29.83,2.98,45.07-1.27,1.7-.48,3.32-.99,4.8-1.55,14.11-5.29,38.9-18.2,44.37-24.24.53-.59,1.15-1.08,1.88-1.4,2.74-1.18,6.69-3.02,9.57-4.38,2.3-1.08,3.62-3.54,3.27-6.06-1.25-8.92-5.54-29.47-19.23-39.36h0Z"/>
      <path class="cls-10" d="M661.17,110.8s8.64,6.93,50.98-5.48"/>
      <path class="cls-26" d="M679.75,52.35s4.92,1.2,11.21-2.76"/>
      <path class="cls-10" d="M695.68,52.73s19.04-3.05,28.92,46.18"/>
    </g>
  </g>
  <g>
    <path class="cls-7" d="M808.87,258.45v25.6"/>
    <path class="cls-7" d="M808.87,243.19v-38.37c0-7.98-6.54-14.52-14.52-14.52h-18.62"/>
  </g>
  <g>
    <path class="cls-16" d="M1045.64,366.78h-37.12c-2.07,0-3.75-1.68-3.75-3.75v-41.32c0-2.07,1.68-3.75,3.75-3.75h37.12c2.07,0,3.75,1.68,3.75,3.75v41.32c0,2.07-1.68,3.75-3.75,3.75Z"/>
    <path class="cls-7" d="M1040.25,328.81h18.78v22.11h-19.19"/>
    <path class="cls-7" d="M1021.2,252.48c-4.51-.34-9.24-.21-14.09.51"/>
    <path class="cls-7" d="M1039.03,289.61c3.13-.92,6.14-2.25,8.92-4.02,17.74-11.35,2.55-28.72-21.72-32.54"/>
    <path class="cls-7" d="M1033.03,309.86c25.24-6.8,6.69-28.98-19.74-27.14-17.51,1.22-4.51,8.98,12.48,8.82"/>
  </g>
  <g>
    <path class="cls-26" d="M754.28,367.47c-9.42.09-17.31-7.06-18.17-16.44-2.4-26.34-1.79-53.35,5.7-73.42,6.17-16.53,30.37-50.24,70.46-50.24h103.44s57.46-4.04,57.46,50.2c0,60.92-17.04,89.22-57.46,89.22-31.91,0-123.69.33-161.43.68Z"/>
    <g>
      <path class="cls-10" d="M776,237.65c10.07-6.11,22.19-10.28,36.27-10.28h103.44s14.57-1.02,29.04,4.89"/>
      <path class="cls-10" d="M963.23,245.65c5.91,7.34,9.95,17.58,9.95,31.92s-.97,27.04-2.97,37.87"/>
      <path class="cls-10" d="M755.42,255.42c-6.81,8.04-11.38,16.23-13.61,22.19-7.49,20.07-8.1,47.08-5.7,73.42.86,9.38,8.75,16.53,18.17,16.44,37.74-.36,129.52-.68,161.43-.68,9.08,0,16.98-1.44,23.77-4.35"/>
      <path class="cls-10" d="M954.82,351.36c2.97-3.35,5.57-7.26,7.79-11.74"/>
    </g>
  </g>
  <rect class="cls-37" x="830.52" y="331.15" width="22.04" height="33.82"/>
  <path class="cls-10" d="M775.04,365.56s11.2-42.18,58.06-42.18"/>
  <g>
    <path class="cls-11" d="M837.04,253.94h59.61"/>
    <path class="cls-35" d="M936.86,210.76c0-28.98-31.7-52.48-70.82-52.48-39.11,0-70.82,23.5-70.82,52.48,0,28.99,31.71,52.48,70.82,52.48,39.11,0,70.82-23.5,70.82-52.48Z"/>
    <path class="cls-16" d="M960.58,179.9c0-36.74-42.33-66.53-94.54-66.53-52.21,0-94.54,29.79-94.54,66.53s42.33,66.53,94.54,66.53c52.22,0,94.54-29.79,94.54-66.53Z"/>
    <path class="cls-37" d="M944.87,186.32c0-29.6-35.29-53.6-78.83-53.6s-78.83,24-78.83,53.6c0,29.6,35.29,53.6,78.83,53.6,43.54,0,78.83-24,78.83-53.6Z"/>
    <path class="cls-7" d="M866.28,263.24v-16.8"/>
    <path class="cls-7" d="M848.37,260.97c-3.45-9.83,1.78-14.73,1.78-14.73"/>
    <path class="cls-7" d="M830.7,256.07c-3.33-9.05,1.72-13.56,1.72-13.56"/>
    <path class="cls-7" d="M816.22,248c-3.6-7.07,1.86-10.61,1.86-10.61"/>
    <path class="cls-7" d="M883.72,260.97c3.45-9.83-1.78-14.73-1.78-14.73"/>
    <path class="cls-7" d="M901.38,256.07c3.33-9.05-1.72-13.56-1.72-13.56"/>
    <path class="cls-7" d="M915.86,248c3.6-7.07-1.86-10.61-1.86-10.61"/>
    <path class="cls-7" d="M965.33,164.57v-55.7"/>
    <path class="cls-26" d="M940.23,102.58c0,4.63,3.76,8.38,8.4,8.38h15.74c4.64,0,8.4-3.75,8.4-8.38,0-4.63-3.76-8.38-8.4-8.38h-15.74c-4.64,0-8.4,3.75-8.4,8.38Z"/>
    <path class="cls-26" d="M866.04,142.36c30.7,0,57.85,10.28,74.46,26.05-10.72-20.96-40-36-74.46-36-34.46,0-63.74,15.04-74.46,36,16.61-15.76,43.76-26.05,74.46-26.05Z"/>
    <path class="cls-7" d="M855.45,142.73c51.54-4.96,83.84,24.48,83.84,24.48"/>
    <path class="cls-7" d="M791.58,168.41c18.85-16.4,51.15-23.84,51.15-23.84"/>
    <path class="cls-41" d="M896.84,234.93c0-2.22-14.08-4.03-31.44-4.03-17.37,0-31.44,1.8-31.44,4.03s14.08,4.03,31.44,4.03c17.37,0,31.44-1.8,31.44-4.03Z"/>
    <path class="cls-7" d="M913.76,122.47c-2.37-.97-4.79-1.89-7.28-2.71"/>
    <path class="cls-7" d="M813.17,124.75c15.1-7.17,33.29-11.37,52.87-11.37,7.56,0,14.9.64,21.95,1.82"/>
    <path class="cls-7" d="M959.76,188.68c.53-2.88.84-5.8.84-8.78,0-20.97-13.81-39.66-35.35-51.85"/>
    <path class="cls-7" d="M955.3,201.83c-12.87,25.96-47.97,44.6-89.26,44.6-52.22,0-94.54-29.78-94.54-66.52,0-16.69,8.75-31.95,23.19-43.62"/>
    <path class="cls-7" d="M938.24,207.85c4.26-6.59,6.64-13.87,6.64-21.53,0-1.37-.1-2.73-.25-4.08"/>
    <path class="cls-7" d="M942.6,173.5c-7-19.35-29.46-34.57-57.96-39.26"/>
    <path class="cls-7" d="M930.48,217.17c-14.26,13.76-37.8,22.75-64.44,22.75-16.78,0-25.17-2.35-37.9-7"/>
    <path class="cls-7" d="M819,229.32c-8.95-4.53-16.44-10.35-21.89-17.01"/>
    <path class="cls-7" d="M822.06,141.83c-21.02,9.62-34.86,25.96-34.86,44.49,0,3.75.57,7.41,1.65,10.95"/>
    <path class="cls-7" d="M854.81,133.27c-5.14.5-10.14,1.34-14.92,2.49"/>
    <path class="cls-26" d="M762.89,188.65c-1.91-.9-3.19-3.5-3.19-6.45v-9.49c0-2.94,1.29-5.55,3.19-6.45l8.5-4.01c2.97-1.4,6.01,1.86,6.01,6.45v17.5c0,4.59-3.04,7.84-6.01,6.44l-8.5-4.01h0Z"/>
    <path class="cls-26" d="M969.31,166.26c1.91.89,3.19,3.49,3.19,6.44v9.49c0,2.94-1.29,5.55-3.19,6.45l-8.5,4.01c-2.97,1.4-6.01-1.86-6.01-6.44v-17.5c0-4.59,3.04-7.84,6.01-6.45l8.5,4.01h0Z"/>
  </g>
  <path class="cls-32" d="M854.38,332.12h-25.04c-2.33,0-4.24-1.91-4.24-4.24v-11.02c0-2.33,1.91-4.24,4.24-4.24h25.04"/>
  <line class="cls-35" x1="830.08" y1="330.56" x2="830.08" y2="366.15"/>
  <polyline class="cls-3" points="846.55 324.22 842.13 320.37 835.56 325.24"/>
  <path class="cls-10" d="M791.53,338.13v-43.34s-.3-5.61,5.91-5.61"/>
  <line class="cls-3" x1="835.85" y1="340.59" x2="847.72" y2="340.59"/>
  <line class="cls-3" x1="835.85" y1="348.69" x2="847.72" y2="348.69"/>
  <line class="cls-3" x1="835.85" y1="356.8" x2="847.72" y2="356.8"/>
  <path class="cls-10" d="M852.84,365.56v-47.72s-.92-6.95,7.05-6.95h50.4s8.98.26,8.98-6.25c0-7.6,8.13-7.83,8.13-7.83"/>
  <line class="cls-10" x1="863.07" y1="312.5" x2="863.07" y2="365.77"/>
  <path class="cls-10" d="M932.55,247.61l-12.41,31.14c-7.56,20.15-14.81,17.86-20.46,17.86h-75.56c-9.34,0-15-3.79-18.72-17.86"/>
  <g>
    <path class="cls-37" d="M966.49,221.05l-3.43,12.43c-1.56,5.53-5.87,9.92-11.41,11.41l-12.5,3.43,12.5,3.43c5.54,1.56,9.92,5.87,11.41,11.41l3.43,12.5,3.43-12.5c1.56-5.53,5.88-9.92,11.41-11.41l12.5-3.43-12.5-3.43c-5.54-1.56-9.92-5.87-11.41-11.41l-3.43-12.43Z"/>
    <path class="cls-7" d="M966.49,275.72l3.43-12.5c1.56-5.53,5.88-9.92,11.41-11.41l12.5-3.43-12.5-3.43c-5.54-1.56-9.92-5.87-11.41-11.41l-3.43-12.5-3.43,12.43c-1.56,5.53-5.87,9.92-11.41,11.41l-12.5,3.43,12.5,3.43c3.94,1.09,7.3,3.6,9.41,6.96"/>
  </g>
  <g>
    <path class="cls-39" d="M1006.84,187.97l-2.52,9.11c-1.15,4.06-4.31,7.27-8.37,8.37l-9.17,2.52,9.17,2.52c4.06,1.15,7.27,4.31,8.37,8.37l2.52,9.16,2.52-9.16c1.15-4.06,4.31-7.27,8.37-8.37l9.17-2.52-9.17-2.52c-4.06-1.15-7.27-4.31-8.37-8.37l-2.52-9.11Z"/>
    <path class="cls-7" d="M1006.84,228.07l2.52-9.16c1.15-4.06,4.31-7.27,8.37-8.37l9.17-2.52-9.17-2.52c-4.06-1.15-7.27-4.31-8.37-8.37l-2.52-9.16-2.52,9.11c-1.15,4.06-4.31,7.27-8.37,8.37l-9.17,2.52,9.17,2.52c2.89.8,5.35,2.64,6.9,5.11"/>
  </g>
  <g>
    <path class="cls-16" d="M318.77,74.56l2.52,9.11c1.15,4.06,4.31,7.27,8.37,8.37l9.17,2.52-9.17,2.52c-4.06,1.15-7.27,4.31-8.37,8.37l-2.52,9.16-2.52-9.16c-1.15-4.06-4.31-7.27-8.37-8.37l-9.17-2.52,9.17-2.52c4.06-1.15,7.27-4.31,8.37-8.37l2.52-9.11Z"/>
    <path class="cls-7" d="M318.77,114.65l-2.52-9.16c-1.15-4.06-4.31-7.27-8.37-8.37l-9.17-2.52,9.17-2.52c4.06-1.15,7.27-4.31,8.37-8.37l2.52-9.16,2.52,9.11c1.15,4.06,4.31,7.27,8.37,8.37l9.17,2.52-9.17,2.52c-2.89.8-5.35,2.64-6.9,5.11"/>
  </g>
  <g>
    <path class="cls-39" d="M360.07,45.65l1.82,6.58c.83,2.93,3.11,5.25,6.04,6.04l6.62,1.82-6.62,1.82c-2.93.83-5.25,3.11-6.04,6.04l-1.82,6.62-1.82-6.62c-.83-2.93-3.11-5.25-6.04-6.04l-6.62-1.82,6.62-1.82c2.93-.83,5.25-3.11,6.04-6.04l1.82-6.58Z"/>
    <path class="cls-7" d="M360.07,74.61l-1.82-6.62c-.83-2.93-3.11-5.25-6.04-6.04l-6.62-1.82,6.62-1.82c2.93-.83,5.25-3.11,6.04-6.04l1.82-6.62,1.82,6.58c.83,2.93,3.11,5.25,6.04,6.04l6.62,1.82-6.62,1.82c-2.09.58-3.87,1.91-4.98,3.69"/>
  </g>
  <g>
    <path class="cls-39" d="M769.75,98.18l1.82,6.58c.83,2.93,3.11,5.25,6.04,6.04l6.62,1.82-6.62,1.82c-2.93.83-5.25,3.11-6.04,6.04l-1.82,6.62-1.82-6.62c-.83-2.93-3.11-5.25-6.04-6.04l-6.62-1.82,6.62-1.82c2.93-.83,5.25-3.11,6.04-6.04l1.82-6.58Z"/>
    <path class="cls-7" d="M769.75,127.14l-1.82-6.62c-.83-2.93-3.11-5.25-6.04-6.04l-6.62-1.82,6.62-1.82c2.93-.83,5.25-3.11,6.04-6.04l1.82-6.62,1.82,6.58c.83,2.93,3.11,5.25,6.04,6.04l6.62,1.82-6.62,1.82c-2.09.58-3.87,1.91-4.98,3.69"/>
  </g>
  <g>
    <path class="cls-7" d="M847.08,199.2c2.72,4.31,7.64,7.07,13.14,6.84,5.46-.25,10.13-3.42,12.49-7.94"/>
    <circle class="cls-36" cx="837.96" cy="177.17" r="2.8"/>
    <circle class="cls-36" cx="864.74" cy="177.17" r="2.8"/>
  </g>
  <rect class="cls-29" x="193.93" y="367.51" width="875.58" height="160.55" rx="8.69" ry="8.69"/>
  <rect class="cls-22" x="1023.93" y="367.51" width="51.13" height="160.55" rx="8.69" ry="8.69"/>
  <g>
    <rect class="cls-24" x="662.06" y="236.36" width="46.24" height="26.2" rx="5.88" ry="5.88"/>
    <path class="cls-22" d="M751.94,366.46h-77.49c-8.01,0-14.2-7.04-13.16-14.98l8.83-68.1c.86-6.62,6.49-11.57,13.16-11.57h59.82c6.67,0,12.31,4.95,13.16,11.57l8.83,68.1c1.03,7.94-5.16,14.98-13.16,14.98Z"/>
    <path class="cls-16" d="M732.35,366.46h-77.49c-8.01,0-14.2-7.04-13.16-14.98l8.83-68.1c.86-6.62,6.49-11.57,13.16-11.57h59.82c6.67,0,12.31,4.95,13.16,11.57l8.83,68.1c1.03,7.94-5.16,14.98-13.16,14.98Z"/>
    <g>
      <rect class="cls-26" x="654.85" y="236.36" width="46.24" height="26.2" rx="5.88" ry="5.88"/>
      <g>
        <line class="cls-26" x1="665.46" y1="262.56" x2="665.46" y2="271.81"/>
        <line class="cls-26" x1="690.48" y1="262.56" x2="690.48" y2="271.81"/>
      </g>
    </g>
    <g>
      <line class="cls-24" x1="693.34" y1="330.01" x2="693.34" y2="351.23"/>
      <line class="cls-24" x1="698.78" y1="330.01" x2="698.78" y2="351.23"/>
      <line class="cls-24" x1="704.22" y1="330.01" x2="704.22" y2="351.23"/>
      <line class="cls-24" x1="709.66" y1="330.01" x2="709.66" y2="351.23"/>
      <line class="cls-24" x1="715.1" y1="330.01" x2="715.1" y2="351.23"/>
      <line class="cls-24" x1="720.54" y1="330.01" x2="720.54" y2="351.23"/>
      <line class="cls-24" x1="725.98" y1="330.01" x2="725.98" y2="351.23"/>
    </g>
  </g>
  <g>
    <path d="M337.88,409.53h27.16l10.93,32.1c.31,1.1.57,1.9.76,2.41.19.51.49,1.31.88,2.41.71,2.27,1.27,4.41,1.71,6.41.43,2,.76,3.78,1,5.35h.71c.08-1.18.25-2.35.53-3.53.27-1.18.57-2.39.88-3.64.31-1.49.74-3.06,1.29-4.7.55-1.65,1.1-3.25,1.65-4.82l10.82-31.98h26.93v72.43h-15.99v-38.45c0-5.02.14-9.48.41-13.4.27-3.92.76-8.27,1.47-13.05l-1.06-.12c-.31,1.41-.63,2.9-.94,4.47-.71,2.82-1.61,5.6-2.7,8.35l-13.4,37.04h-20.69l-13.4-37.39c-.31-.86-.59-1.63-.82-2.29-.23-.67-.47-1.43-.71-2.29-.47-1.33-.86-2.65-1.18-3.94-.31-1.29-.59-2.61-.82-3.94l-.94.12c.71,4.47,1.16,8.66,1.35,12.58.19,3.92.29,8.35.29,13.29v39.04h-16.11v-72.43Z"/>
    <path d="M446.86,480.02c-4.51-2.31-8-5.6-10.46-9.88-2.47-4.27-3.7-9.35-3.7-15.23s1.23-11.19,3.7-15.7c2.47-4.51,6.04-8.01,10.7-10.52,4.66-2.51,10.17-3.76,16.52-3.76s11.95,1.22,16.34,3.64c4.39,2.43,7.64,5.9,9.76,10.41,2.12,4.51,3.17,9.86,3.17,16.05v.12h-45.39v-3.76h30.92l-1.65,1.29c0-2.59-.51-4.88-1.53-6.88-1.02-2-2.51-3.55-4.47-4.64-1.96-1.1-4.39-1.65-7.29-1.65s-5.25.57-7.29,1.71c-2.04,1.14-3.64,2.78-4.82,4.94-1.18,2.16-1.76,4.68-1.76,7.58v.82c0,3.06.57,5.66,1.71,7.82,1.13,2.16,2.76,3.84,4.88,5.06,2.12,1.22,4.66,1.82,7.64,1.82,3.45,0,6.31-.74,8.58-2.23,2.27-1.49,3.72-3.53,4.35-6.11h16.23c-.31,4.16-1.69,7.96-4.12,11.41-2.43,3.45-5.88,6.17-10.35,8.17s-9.68,3-15.64,3-11.54-1.16-16.05-3.47Z"/>
    <path d="M501.54,426.47h17.05v55.5h-17.05v-55.5ZM517.53,447.28h1.88c0-5.25.69-9.52,2.06-12.82,1.37-3.29,3.43-5.7,6.17-7.23,2.74-1.53,6.31-2.29,10.7-2.29v17.64h-3.06c-4.16,0-7.43.43-9.82,1.29-2.39.86-4.14,2.23-5.23,4.12-1.1,1.88-1.65,4.47-1.65,7.76l-1.06-8.47Z"/>
    <path d="M556.06,480.02c-4.63-2.31-8.17-5.66-10.64-10.05-2.47-4.39-3.7-9.6-3.7-15.64s1.25-10.92,3.76-15.34c2.51-4.43,6.05-7.88,10.64-10.35,4.59-2.47,9.94-3.7,16.05-3.7,5.49,0,10.35.86,14.58,2.59,4.23,1.72,7.62,4.39,10.17,8,2.55,3.61,3.94,8.23,4.17,13.87h-17.64c-.39-3.37-1.47-5.88-3.23-7.53-1.76-1.65-4.33-2.47-7.7-2.47-2.67,0-5.02.61-7.05,1.82-2.04,1.22-3.63,2.96-4.76,5.23-1.14,2.27-1.71,4.9-1.71,7.88s.55,5.45,1.65,7.64c1.1,2.2,2.66,3.9,4.7,5.11,2.04,1.22,4.47,1.82,7.29,1.82,3.45,0,6.15-.88,8.11-2.65,1.96-1.76,3.17-4.33,3.64-7.7h17.64c-.24,4.78-1.49,9.05-3.76,12.82-2.27,3.76-5.58,6.72-9.94,8.88s-9.62,3.23-15.81,3.23-11.84-1.16-16.46-3.47Z"/>
    <path d="M610.03,404.6h16.93v77.37h-16.93v-77.37ZM646.83,443.34c-1.57-2.31-4.19-3.47-7.88-3.47-2.27,0-4.31.51-6.11,1.53-1.8,1.02-3.23,2.43-4.29,4.23-1.06,1.8-1.59,3.8-1.59,6l-.82-6.35h1.76v-.71c.39-4.23,1.35-7.82,2.88-10.76s3.68-5.15,6.47-6.64c2.78-1.49,6.17-2.23,10.17-2.23,6.35,0,11.05,1.98,14.11,5.94,3.06,3.96,4.58,9.66,4.58,17.11v33.98h-16.93v-29.75c0-3.6-.78-6.56-2.35-8.88Z"/>
    <path d="M719.2,480.43c-5.06-2.04-8.94-5.04-11.64-9-2.7-3.96-4.1-8.8-4.17-14.52h17.87c.08,2.51.78,4.58,2.12,6.23,1.33,1.65,3.23,2.88,5.7,3.7,2.47.82,5.47,1.23,8.99,1.23,3.06,0,5.64-.33,7.76-1,2.12-.67,3.7-1.61,4.76-2.82,1.06-1.21,1.59-2.68,1.59-4.41,0-1.41-.37-2.57-1.12-3.47-.75-.9-2.08-1.67-4-2.29-1.92-.63-4.45-1.18-7.58-1.65-1.1-.16-2.47-.35-4.12-.59-7.37-.86-13.17-2.1-17.4-3.7-4.23-1.61-7.33-3.78-9.29-6.53-1.96-2.74-2.94-6.27-2.94-10.58,0-4.62,1.27-8.66,3.82-12.11,2.55-3.45,6.17-6.11,10.88-8s10.19-2.82,16.46-2.82c6.58,0,12.19.98,16.81,2.94,4.62,1.96,8.21,4.8,10.76,8.52,2.55,3.72,3.86,8.21,3.94,13.46h-17.99c-.16-3.29-1.41-5.74-3.76-7.35-2.35-1.61-5.92-2.41-10.7-2.41-2.51,0-4.68.33-6.53,1-1.84.67-3.25,1.59-4.23,2.76-.98,1.18-1.47,2.51-1.47,4,0,1.41.45,2.59,1.35,3.53.9.94,2.49,1.72,4.76,2.35,2.27.63,5.56,1.22,9.88,1.76,7.21.78,13.01,2,17.4,3.64,4.39,1.65,7.62,3.86,9.7,6.64,2.08,2.78,3.12,6.37,3.12,10.76,0,4.7-1.29,8.84-3.88,12.41-2.59,3.57-6.31,6.35-11.17,8.35-4.86,2-10.62,3-17.28,3-7.21,0-13.35-1.02-18.4-3.06Z"/>
    <path d="M779.48,404.6h16.93v77.37h-16.93v-77.37ZM816.28,443.34c-1.57-2.31-4.19-3.47-7.88-3.47-2.27,0-4.31.51-6.11,1.53-1.8,1.02-3.23,2.43-4.29,4.23-1.06,1.8-1.59,3.8-1.59,6l-.82-6.35h1.76v-.71c.39-4.23,1.35-7.82,2.88-10.76s3.68-5.15,6.47-6.64c2.78-1.49,6.17-2.23,10.17-2.23,6.35,0,11.05,1.98,14.11,5.94,3.06,3.96,4.58,9.66,4.58,17.11v33.98h-16.93v-29.75c0-3.6-.78-6.56-2.35-8.88Z"/>
    <path d="M857.98,479.73c-4.74-2.51-8.41-5.98-10.99-10.41-2.59-4.43-3.88-9.46-3.88-15.11s1.31-10.68,3.94-15.11c2.63-4.43,6.33-7.9,11.11-10.41,4.78-2.51,10.23-3.76,16.34-3.76s11.54,1.25,16.28,3.76c4.74,2.51,8.43,5.98,11.05,10.41,2.62,4.43,3.94,9.46,3.94,15.11s-1.29,10.68-3.88,15.11c-2.59,4.43-6.25,7.9-10.99,10.41-4.74,2.51-10.21,3.76-16.4,3.76s-11.78-1.25-16.52-3.76ZM881.68,467.03c2.12-1.25,3.76-3.02,4.94-5.29,1.18-2.27,1.76-4.78,1.76-7.53s-.59-5.35-1.76-7.58c-1.18-2.23-2.82-3.98-4.94-5.23-2.12-1.25-4.51-1.88-7.17-1.88-2.82,0-5.29.63-7.41,1.88-2.12,1.25-3.76,3-4.94,5.23-1.18,2.23-1.76,4.76-1.76,7.58s.59,5.35,1.76,7.58c1.18,2.23,2.82,3.98,4.94,5.23,2.12,1.25,4.58,1.88,7.41,1.88,2.66,0,5.06-.63,7.17-1.88Z"/>
    <path d="M930.96,505.13h-17.05v-78.66h17.05v20.81l-1.41,6.82,1.41,6.94v44.09ZM928.49,462.44v-16.34h3.29c.24-4.62,1.19-8.48,2.88-11.58,1.68-3.1,4.04-5.47,7.05-7.11,3.02-1.65,6.6-2.47,10.76-2.47,5.17,0,9.6,1.2,13.29,3.59,3.68,2.39,6.49,5.76,8.41,10.11,1.92,4.35,2.88,9.54,2.88,15.58s-1.08,11.15-3.23,15.58c-2.16,4.43-5.16,7.82-9,10.17-3.84,2.35-8.19,3.53-13.05,3.53-3.69,0-7-.65-9.94-1.94-2.94-1.29-5.31-3.51-7.11-6.64-1.8-3.13-2.78-7.29-2.94-12.46h-3.29ZM953.24,467.21c2.08-1.21,3.68-2.94,4.82-5.17,1.14-2.23,1.71-4.84,1.71-7.82s-.59-5.58-1.76-7.82c-1.18-2.23-2.84-3.94-5-5.12-2.16-1.18-4.68-1.76-7.58-1.76s-5.6.59-7.88,1.76c-2.27,1.18-4.04,2.86-5.29,5.06-1.25,2.2-1.88,4.78-1.88,7.76s.69,5.72,2.06,8c1.37,2.27,3.23,4,5.58,5.17s4.98,1.76,7.88,1.76,5.27-.61,7.35-1.82Z"/>
  </g>
  <g class="cls-43">
    <g>
      <path class="cls-41" d="M863.87,285.91c-1.08,0-1.9-.2-2.46-.6-.56-.41-.86-1.01-.9-1.82h1.86c.04.33.19.58.46.75.27.17.65.26,1.13.26.38,0,.68-.06.88-.18.21-.12.31-.28.31-.49s-.11-.36-.34-.46c-.23-.11-.64-.2-1.25-.27-.64-.07-1.17-.18-1.59-.33-.41-.14-.72-.34-.92-.6-.21-.25-.31-.58-.31-.96,0-.66.27-1.18.82-1.55.54-.37,1.26-.56,2.15-.56.95,0,1.7.2,2.24.6.55.39.84.93.86,1.62h-1.81c-.03-.24-.16-.44-.41-.58-.24-.14-.53-.22-.9-.22s-.63.06-.84.18c-.2.12-.3.28-.3.48s.12.35.35.45c.24.1.64.19,1.21.26.67.07,1.21.18,1.62.31.42.13.73.32.94.57.22.25.33.59.33,1.01,0,.66-.28,1.19-.83,1.58-.55.38-1.32.57-2.3.57ZM871.38,285.91c-1.07,0-1.92-.29-2.54-.88-.62-.59-.92-1.41-.92-2.46,0-.69.14-1.3.42-1.82.29-.53.7-.93,1.22-1.21.53-.29,1.15-.43,1.86-.43,1.09,0,1.92.3,2.49.91.57.6.86,1.44.86,2.53v.15h-5.3v-.56h3.87l-.34.22c0-.52-.15-.92-.42-1.21-.26-.3-.64-.45-1.14-.45s-.93.15-1.24.46c-.3.31-.45.74-.45,1.3v.12c0,.56.15.99.45,1.29.3.3.72.45,1.26.45.39,0,.71-.07.96-.22.26-.15.43-.37.52-.64h1.78c-.05.46-.22.88-.5,1.25-.27.36-.65.65-1.14.87-.48.22-1.05.33-1.7.33ZM875.88,279.28h1.83v6.46h-1.83v-6.46ZM876.8,278.37c-.34,0-.63-.12-.87-.35-.24-.24-.35-.52-.35-.86s.12-.61.35-.84c.24-.24.53-.37.87-.37s.62.12.84.35c.24.24.35.52.35.86s-.12.63-.35.87c-.23.23-.51.34-.84.34ZM879.21,276.8h1.83v4.87l-.2.83.2.83v2.41h-1.83v-8.93ZM881.09,281.45c.02-.43.13-.82.33-1.17.2-.35.47-.64.82-.86.35-.22.76-.33,1.22-.33.89,0,1.58.3,2.08.91.51.61.76,1.44.76,2.5,0,.69-.13,1.29-.38,1.81-.24.52-.59.91-1.03,1.18-.44.27-.95.41-1.51.41-.66,0-1.2-.19-1.62-.58-.41-.4-.63-.99-.67-1.77h-.52v-2.11h.52ZM882.75,284.32c.5,0,.9-.17,1.21-.5.31-.34.46-.77.46-1.3s-.16-.97-.48-1.3c-.31-.34-.72-.5-1.24-.5s-.92.17-1.25.5c-.33.33-.49.76-.49,1.29s.17.97.5,1.32c.34.34.77.5,1.28.5ZM890.58,285.91c-1.07,0-1.91-.29-2.53-.88-.62-.59-.92-1.41-.92-2.46,0-.69.14-1.3.42-1.82.29-.53.7-.93,1.22-1.21.53-.29,1.16-.43,1.86-.43,1.09,0,1.91.3,2.47.91.57.6.86,1.44.86,2.53v.15h-5.3v-.56h3.89l-.34.22c0-.52-.15-.92-.42-1.21-.26-.3-.64-.45-1.13-.45-.52,0-.93.15-1.25.46-.31.31-.46.74-.46,1.3v.12c0,.56.15.99.45,1.29.3.3.72.45,1.26.45.39,0,.71-.07.96-.22.26-.15.43-.37.52-.64h1.79c-.05.46-.22.88-.5,1.25-.27.37-.65.67-1.14.88-.49.21-1.06.31-1.71.31ZM895.19,279.28h1.83v6.46h-1.83v-6.46ZM896.72,281.7h.33c.03-.85.26-1.47.71-1.85.44-.38,1.06-.57,1.86-.57h4.54v1.7h-5.22c-.66,0-1.15.14-1.45.41-.31.26-.46.68-.46,1.25l-.3-.94ZM903.06,285.91c-.81,0-1.44-.23-1.89-.68-.45-.46-.68-1.12-.68-1.97v-5.95h1.83v5.74c0,.39.08.69.24.9.16.21.42.31.77.31.31,0,.59-.08.84-.24l.76,1.16c-.24.22-.53.4-.84.54-.32.14-.67.2-1.05.2Z"/>
      <path class="cls-41" d="M908.62,275h.67l-3.49,13.28h-.67l3.49-13.28Z"/>
      <path class="cls-41" d="M911.68,275h.67l-3.49,13.28h-.67l3.49-13.28Z"/>
    </g>
  </g>
  <g>
    <g class="cls-18">
      <path class="cls-37" d="M304.27,390.37c-2.68-10.02-10.56-17.28-19.95-19.68-3.58-.92-4.88-5.27-2.55-8.14,5.41-6.67,7.66-15.74,5.28-24.65l-7.74-28.88c-3.96-14.78-19.16-23.55-33.94-19.59l-156.8,42.01c-7.09,1.9-13.33,6.35-17.1,12.65-3.89,6.5-4.96,14.13-3,21.43l7.74,28.88c2.39,8.93,8.91,15.67,16.95,18.73,3.45,1.32,4.51,5.73,1.87,8.32-6.91,6.78-10.08,16.99-7.4,26.99l7.74,28.88c3.95,14.76,19.18,23.55,33.94,19.59l163.12-43.71c14.76-3.95,23.55-19.18,19.59-33.94l-7.74-28.88Z"/>
      <g class="cls-17">
        <g class="cls-21">
          <path class="cls-40" d="M300.72,422.28l-7.74-28.88c-2.29-8.54-11.07-13.62-19.62-11.33l-19,5.09c-2.12.57-4.31-.69-4.87-2.81l-4.04-15.09c-.5-1.87.61-3.8,2.48-4.3l16.5-4.42c8.54-2.29,13.62-11.07,11.33-19.62l-7.74-28.88c-2.29-8.54-11.07-13.62-19.62-11.33l-157.31,42.15c-8.54,2.29-13.62,11.07-11.33,19.62l7.74,28.88c2.29,8.54,11.07,13.62,19.62,11.33l16.21-4.34c1.75-.47,3.54.57,4.01,2.31l4.29,16c.47,1.75-.57,3.54-2.31,4.01l-19.07,5.11c-8.54,2.29-13.62,11.07-11.33,19.62l7.74,28.88c2.29,8.54,11.07,13.62,19.62,11.33l163.12-43.71c8.54-2.29,13.62-11.07,11.33-19.62Z"/>
          <g>
            <path class="cls-41" d="M97.22,359.56l6.05-1.62,5.42,20.22,11.57-3.1,1.38,5.15-17.63,4.72-6.8-25.37Z"/>
            <path class="cls-41" d="M128.85,377.55c-1.8-.39-3.33-1.21-4.59-2.48-1.27-1.26-2.17-2.93-2.73-4.99-.56-2.09-.62-4.03-.18-5.85.44-1.81,1.36-3.37,2.76-4.69,1.4-1.32,3.21-2.27,5.43-2.87,2.28-.61,4.3-.7,6.07-.26,1.77.44,3.23,1.35,4.39,2.73,1.16,1.38,2.04,3.15,2.62,5.32v.04s-15.89,4.26-15.89,4.26l-.35-1.32,10.83-2.9-.46.61c-.24-.91-.64-1.66-1.18-2.26-.54-.6-1.21-1.01-2-1.21-.79-.2-1.69-.16-2.71.11-.99.26-1.79.69-2.39,1.28-.61.59-1.02,1.32-1.23,2.18-.21.87-.18,1.81.09,2.82l.08.29c.29,1.07.73,1.93,1.33,2.58.6.65,1.33,1.09,2.18,1.31.86.23,1.8.2,2.85-.08,1.21-.32,2.14-.85,2.8-1.59.66-.73.97-1.58.95-2.55l5.68-1.52c.28,1.48.16,2.94-.37,4.38-.53,1.44-1.48,2.71-2.86,3.83-1.38,1.12-3.11,1.96-5.2,2.52-2.17.58-4.15.68-5.95.29Z"/>
            <path class="cls-41" d="M141.06,354.17l5.93-1.59,5.47,8.07c.35.52.64.96.88,1.31.24.35.52.8.85,1.36.37.61.73,1.24,1.08,1.9.35.66.63,1.26.84,1.83l.33-.09c-.14-.85-.21-1.78-.2-2.81,0-1.03.04-2.14.1-3.34,0-.41.02-.81.03-1.2l.62-9.7,5.89-1.58-1.71,21.29-7.91,2.12-12.21-17.56Z"/>
            <path class="cls-41" d="M173.7,365.53c-1.8-.39-3.33-1.21-4.59-2.48-1.27-1.26-2.17-2.93-2.73-4.99-.56-2.09-.62-4.03-.18-5.85.44-1.81,1.36-3.37,2.76-4.69,1.4-1.32,3.21-2.27,5.43-2.87,2.28-.61,4.3-.7,6.07-.26,1.77.44,3.23,1.35,4.39,2.73,1.16,1.38,2.04,3.15,2.62,5.32v.04s-15.89,4.26-15.89,4.26l-.35-1.32,10.83-2.9-.46.61c-.24-.91-.64-1.66-1.18-2.26-.54-.6-1.21-1.01-2-1.21-.79-.2-1.69-.16-2.71.11-.99.26-1.79.69-2.39,1.28-.61.59-1.02,1.32-1.23,2.18-.21.87-.18,1.81.09,2.82l.08.29c.29,1.07.73,1.93,1.33,2.58.6.65,1.33,1.09,2.18,1.31.86.23,1.8.2,2.85-.08,1.21-.32,2.14-.85,2.8-1.59.66-.73.97-1.58.95-2.55l5.68-1.52c.28,1.48.16,2.94-.37,4.38-.53,1.44-1.48,2.71-2.86,3.83-1.38,1.12-3.11,1.96-5.2,2.52-2.17.58-4.15.68-5.95.29Z"/>
            <path class="cls-41" d="M186.33,333.83l5.97-1.6,7.26,27.1-5.97,1.6-7.26-27.1Z"/>
            <path class="cls-41" d="M214.32,354.03c-1.4-.9-2.43-2.56-3.08-4.98l-3.42-12.77,5.97-1.6,2.95,11c.33,1.24.81,2.11,1.45,2.61.64.51,1.41.64,2.31.4.8-.21,1.49-.57,2.07-1.09.58-.51.99-1.13,1.23-1.85s.24-1.5.02-2.32l.86,2.07-.58.15.08.29c.42,1.56.46,2.94.14,4.13-.33,1.19-.92,2.16-1.78,2.91-.86.74-1.91,1.28-3.14,1.61-1.98.53-3.67.34-5.07-.56ZM224.18,344.79l-.13-.49-3.09-11.53,5.93-1.59,5.21,19.44-5.93,1.59-1.99-7.41Z"/>
            <path class="cls-41" d="M244.36,356.02l-5.97,1.6-7.38-27.55,5.97-1.6,1.95,7.29.15,2.52,1.15,2.3,4.14,15.44ZM239.49,341.3l-1.53-5.72,1.15-.31c-.35-1.64-.38-3.08-.08-4.33.3-1.24.9-2.29,1.8-3.15.9-.86,2.08-1.48,3.54-1.87,1.81-.49,3.47-.48,4.99,0,1.51.49,2.81,1.41,3.89,2.75,1.08,1.34,1.9,3.07,2.47,5.19.56,2.09.67,4.01.33,5.76-.34,1.75-1.07,3.22-2.2,4.41-1.12,1.18-2.54,2.01-4.24,2.46-1.29.35-2.51.43-3.66.25-1.15-.18-2.19-.73-3.11-1.66-.93-.93-1.66-2.29-2.2-4.09l-1.15.31ZM248.6,340.65c.61-.62,1.01-1.37,1.2-2.26.19-.89.14-1.85-.14-2.9-.28-1.04-.73-1.9-1.35-2.57-.62-.67-1.37-1.11-2.23-1.32-.87-.21-1.81-.18-2.82.09-1.04.28-1.91.73-2.59,1.36-.69.63-1.15,1.38-1.38,2.27-.23.89-.21,1.85.07,2.9.29,1.07.78,1.94,1.47,2.61.69.67,1.51,1.1,2.44,1.29.93.19,1.91.15,2.92-.12.99-.27,1.79-.71,2.4-1.33Z"/>
          </g>
          <g>
            <path class="cls-41" d="M144.22,396.28l5.93-1.59,5.11,7.37c.47.76.84,1.36,1.11,1.82.79,1.2,1.44,2.29,1.94,3.28.5.99.91,2.01,1.22,3.07l-.95,6.17-14.35-20.12ZM158.4,410.31l1.36-.36c-.21-1-.33-1.99-.38-2.97-.04-.97-.03-2.1.04-3.39,0-.44,0-.87.03-1.29.02-.42.02-.87,0-1.37l.62-8.91,5.89-1.58-2.58,30.22-5.89,1.58.91-11.94Z"/>
            <path class="cls-41" d="M176.99,407.49c-1.9-.43-3.51-1.3-4.83-2.61-1.32-1.31-2.25-2.95-2.78-4.93-.53-1.98-.54-3.86-.04-5.66.5-1.8,1.48-3.36,2.92-4.69,1.44-1.33,3.23-2.28,5.37-2.85,2.14-.57,4.16-.64,6.06-.21,1.9.43,3.51,1.3,4.85,2.61,1.34,1.3,2.27,2.94,2.8,4.92.53,1.98.55,3.86.06,5.66-.49,1.8-1.45,3.35-2.87,4.68-1.43,1.32-3.22,2.28-5.39,2.86-2.2.59-4.24.67-6.14.23ZM184.1,400.82c.62-.64,1.03-1.41,1.23-2.32.2-.91.17-1.84-.09-2.8-.27-.99-.71-1.82-1.33-2.49-.62-.67-1.36-1.13-2.22-1.37-.86-.24-1.76-.23-2.69.01-.99.27-1.79.72-2.42,1.35s-1.04,1.4-1.24,2.3c-.2.89-.17,1.83.09,2.82.27.99.71,1.82,1.33,2.49s1.36,1.13,2.22,1.37c.86.24,1.78.23,2.77-.04.93-.25,1.71-.69,2.34-1.33Z"/>
            <path class="cls-41" d="M198.41,401.25c-1.41-.9-2.43-2.56-3.08-4.98l-3.42-12.77,5.97-1.6,2.95,11c.33,1.23.81,2.11,1.45,2.61.64.51,1.41.64,2.31.4.8-.21,1.49-.57,2.07-1.09.58-.51.99-1.13,1.23-1.85.23-.72.24-1.5.02-2.32l.86,2.06-.58.15.08.29c.42,1.56.46,2.94.14,4.13-.33,1.19-.92,2.16-1.78,2.91-.86.74-1.91,1.28-3.14,1.61-1.98.53-3.67.34-5.07-.56ZM208.27,392.01l-.13-.49-3.09-11.53,5.93-1.59,5.21,19.44-5.93,1.59-1.99-7.41Z"/>
            <path class="cls-41" d="M215.09,377.29l5.97-1.6,5.21,19.44-5.97,1.6-5.21-19.44ZM222.65,383.08l.66-.18c-.49-1.84-.65-3.4-.48-4.68.17-1.28.67-2.32,1.48-3.11.82-.79,1.99-1.4,3.53-1.81l1.66,6.18-1.07.29c-1.46.39-2.56.85-3.32,1.37-.76.53-1.24,1.17-1.45,1.93-.21.76-.16,1.72.15,2.87l-1.17-2.87Z"/>
          </g>
          <g>
            <path class="cls-41" d="M115.43,449.09l5.81-1.56,3.92,6.06c.67,1.5,1.09,2.43,1.28,2.79.63,1.24,1.17,2.33,1.63,3.27.46.94.84,1.82,1.15,2.65l.29-.08c-.16-.81-.29-1.73-.41-2.76-.11-1.03-.21-2.18-.29-3.45-.1-.8-.17-1.39-.21-1.78-.04-.38-.12-.96-.24-1.72l.3-6.97,6.55-1.75,4.12,6.31c.27.69.49,1.21.66,1.55.16.34.38.84.65,1.5.43.94.84,1.87,1.23,2.76.39.9.73,1.8,1.04,2.72l.33-.09c-.07-.36-.12-.69-.15-.97-.03-.29-.07-.61-.11-.99-.17-1.28-.31-2.47-.43-3.57-.12-1.1-.22-2.3-.3-3.6l.39-7.61,5.72-1.53-.23,20.89-7.25,1.94-4.04-5.67c-.24-.44-.46-.85-.66-1.24-.21-.39-.43-.81-.67-1.28-.94-1.96-1.62-3.7-2.06-5.23l-.29.08c.2.86.36,1.76.48,2.7.12.94.21,1.86.27,2.75.05,1.16.08,2.17.1,3.02l-.55,6.86-7.25,1.94-10.77-17.95Z"/>
            <path class="cls-41" d="M159.37,457.31c-1.9-.43-3.51-1.3-4.83-2.61-1.32-1.31-2.25-2.95-2.78-4.93-.53-1.98-.54-3.86-.04-5.66.5-1.8,1.48-3.36,2.91-4.69,1.44-1.33,3.23-2.28,5.37-2.85,2.14-.57,4.16-.64,6.06-.21,1.9.43,3.51,1.3,4.85,2.61,1.33,1.3,2.27,2.95,2.8,4.92.53,1.98.55,3.86.06,5.66-.49,1.79-1.45,3.35-2.87,4.68-1.43,1.32-3.22,2.28-5.39,2.86-2.2.59-4.24.67-6.14.23ZM166.48,450.64c.62-.64,1.03-1.41,1.23-2.32s.17-1.84-.09-2.8c-.26-.99-.71-1.82-1.33-2.49s-1.36-1.13-2.22-1.37-1.76-.24-2.69.01c-.99.27-1.79.72-2.42,1.35-.62.64-1.04,1.4-1.24,2.3-.2.89-.17,1.83.09,2.82.26.99.71,1.82,1.33,2.49.62.67,1.36,1.13,2.22,1.37.86.24,1.78.23,2.77-.04.93-.25,1.71-.69,2.34-1.33Z"/>
            <path class="cls-41" d="M174.41,433.28l5.97-1.6,5.21,19.44-5.97,1.6-5.21-19.44ZM181.96,439.07l.66-.18c-.49-1.84-.65-3.4-.48-4.68.17-1.28.67-2.32,1.48-3.11.82-.79,1.99-1.39,3.53-1.81l1.66,6.18-1.07.29c-1.46.39-2.56.85-3.32,1.37-.76.53-1.24,1.17-1.45,1.93s-.16,1.72.15,2.87l-1.17-2.87Z"/>
            <path class="cls-41" d="M187.63,421.53l5.97-1.6,7.26,27.1-5.97,1.6-7.26-27.1ZM197.95,436.47l6.07-11.12,7.12-1.91-6.1,10.68,12.5,8.43-7.62,2.04-11.98-8.13Z"/>
            <path class="cls-41" d="M221.81,412.37l5.97-1.6,7.26,27.1-5.97,1.6-7.26-27.1Z"/>
            <path class="cls-41" d="M234.5,414.25c-.63-.17-1.18-.48-1.65-.95-.46-.46-.78-1.01-.95-1.64-.18-.66-.18-1.3-.01-1.94.17-.63.49-1.18.95-1.64.46-.46,1.03-.78,1.69-.96.6-.16,1.22-.16,1.84.02.62.17,1.16.5,1.63.98.47.48.78,1.03.95,1.66.17.63.17,1.26,0,1.9-.17.63-.48,1.18-.93,1.64-.45.46-.98.77-1.58.93-.66.18-1.3.18-1.94.01ZM233.96,417.33l5.97-1.6,5.21,19.44-5.97,1.6-5.21-19.44Z"/>
            <path class="cls-41" d="M242.54,415.91l13.59-3.64,1.22,4.57-13.59,3.64-1.23-4.57ZM245.3,409.01c.22-1.22.78-2.25,1.69-3.08.91-.83,2.19-1.47,3.84-1.91.66-.18,1.37-.3,2.13-.37.76-.07,1.32-.08,1.69-.03l1.28,4.78c-.42-.03-.82-.04-1.19-.01-.38.03-.73.08-1.06.17-.96.26-1.6.67-1.92,1.24-.32.57-.35,1.32-.1,2.26l5.34,19.93-5.93,1.59-5.4-20.14c-.46-1.73-.59-3.2-.37-4.42Z"/>
            <path class="cls-41" d="M267.42,428.47c-1.8-.39-3.33-1.21-4.59-2.48-1.27-1.26-2.18-2.93-2.73-4.98-.56-2.09-.62-4.04-.18-5.85.44-1.81,1.36-3.37,2.76-4.69,1.4-1.32,3.21-2.27,5.43-2.87,2.28-.61,4.3-.7,6.07-.26,1.77.44,3.23,1.35,4.39,2.73,1.16,1.38,2.04,3.16,2.62,5.32v.04s-15.89,4.26-15.89,4.26l-.35-1.32,10.83-2.9-.46.61c-.24-.91-.64-1.66-1.18-2.27-.54-.6-1.21-1.01-2-1.21-.79-.2-1.69-.16-2.71.11-.99.27-1.79.69-2.39,1.28-.61.59-1.02,1.32-1.23,2.18-.21.87-.18,1.81.09,2.82l.08.29c.29,1.07.73,1.93,1.33,2.58s1.33,1.09,2.18,1.31c.86.23,1.8.2,2.85-.08,1.21-.32,2.14-.85,2.8-1.59.66-.73.97-1.58.95-2.55l5.68-1.52c.28,1.49.16,2.95-.37,4.38-.53,1.44-1.48,2.71-2.86,3.83-1.38,1.12-3.11,1.96-5.2,2.52-2.17.58-4.15.68-5.95.29Z"/>
          </g>
        </g>
        <g>
          <path class="cls-2" d="M107.82,338.38l-16.73,4.48c-8.54,2.29-13.62,11.07-11.33,19.62l7.74,28.88c2.29,8.54,11.07,13.62,19.62,11.33l15.96-4.28c1.89-.51,3.83.61,4.33,2.5l4.15,15.49c.51,1.89-.61,3.83-2.5,4.33l-8.03,2.15"/>
          <line class="cls-2" x1="205.24" y1="312.28" x2="135.32" y2="331.01"/>
          <path class="cls-2" d="M222.88,307.55l25.52-6.84c8.54-2.29,17.33,2.78,19.62,11.33l7.74,28.88c2.29,8.54-2.78,17.33-11.33,19.62l-10.16,2.72"/>
          <path class="cls-2" d="M247.48,376.86l2.12,7.92c.51,1.89,2.44,3.01,4.33,2.5l19.43-5.21c8.54-2.29,17.33,2.78,19.62,11.33l.66,2.46,2.07,7.73,5.01,18.69c2.29,8.54-2.78,17.33-11.33,19.62l-13.09,3.51"/>
          <line class="cls-2" x1="191.09" y1="468.24" x2="249.59" y2="452.56"/>
          <path class="cls-2" d="M110.24,425.78c-8.54,2.29-13.62,11.07-11.33,19.62l7.74,28.88c2.29,8.54,11.07,13.62,19.62,11.33l50.09-13.42"/>
        </g>
      </g>
    </g>
    <g class="cls-20">
      <path class="cls-37" d="M307.54,330.28l5.28-20.19c.14-.52.21-1.06.21-1.61,0-1.22-.35-2.41-1-3.43l-4.09-6.38-.17-.27.05-.32c1.72-11.94-1.13-23.21-8.24-32.59-1.19-1.57-3.08-2.51-5.06-2.51-.77,0-1.52.14-2.24.41-10.73,4.06-18.71,12.11-23.08,23.29l-.12.32-.31.15-6.32,3.03c-1.69.81-2.92,2.31-3.4,4.12l-5.28,20.19c-.63,2.4.21,4.96,2.13,6.52,1.13.92,2.55,1.43,4.01,1.43.97,0,1.94-.23,2.81-.66l4.2-2.07.5-.25.43.36c.14.12.31.23.5.34l.17.11.53.34-.16.61-4.97,18.88c-.99,3.77,1.27,7.64,5.04,8.63l.08.02c.56.14,1.14.21,1.71.21h7.9c3.2,0,6.01-2.16,6.83-5.26l4.17-15.87.2-.77.78.14c.4.07.76.1,1.08.1.25,0,.5-.02.75-.04l.54-.06.29.47,2.74,4.38c1.17,1.87,3.18,2.98,5.38,2.98.32,0,.64-.02.96-.07,2.5-.38,4.54-2.21,5.18-4.67Z"/>
      <path class="cls-37" d="M288.06,294.04c-3.15-.96-5.05-4.25-4.23-7.37.82-3.11,4.03-4.87,7.18-3.9,3.15.96,5.05,4.25,4.23,7.37-.82,3.11-4.03,4.87-7.18,3.9Z"/>
      <g>
        <path class="cls-13" d="M306.68,308.48l-5.6-8.73c1.87-9.14,1.27-20.08-6.57-30.42-11.69,4.42-17.5,13.41-20.34,22.26l-9,4.31-5.28,20.19,11.72-5.79c.06,2.87.29,4.66.29,4.66l19.79,6s1.06-1.39,2.51-3.8l7.2,11.52,5.28-20.19h0ZM288.06,294.04c-3.15-.96-5.05-4.25-4.23-7.37.82-3.11,4.03-4.87,7.18-3.9,3.15.96,5.05,4.25,4.23,7.37-.82,3.11-4.03,4.87-7.18,3.9Z"/>
        <g>
          <path class="cls-4" d="M281.3,278.47c3.81-4.17,6.69-6.5,13.23-9.15.76,1.01,1.44,2.02,2.07,3.04"/>
          <path class="cls-4" d="M305.46,313.14l1.22-4.66-5.6-8.73c1.5-7.34,1.4-15.85-2.77-24.27"/>
          <path class="cls-4" d="M303.54,320.51l-2.13,8.16-7.2-11.52c-1.44,2.41-2.51,3.8-2.51,3.8l-6.74-2.04"/>
          <path class="cls-4" d="M264.14,299.91l1.04-4.01,9-4.31c.83-2.58,1.91-5.16,3.31-7.64"/>
          <path class="cls-4" d="M262.34,306.76l-2.44,9.33,11.72-5.79c.06,2.87.29,4.65.29,4.65l3.39,1.03"/>
          <path class="cls-4" d="M293.57,284.33c-.7-.7-1.55-1.25-2.55-1.56-3.15-.96-6.37.8-7.18,3.9-.81,3.11,1.08,6.41,4.23,7.37,1.11.34,2.22.32,3.24.04"/>
          <path class="cls-4" d="M272.96,296.39s-1.65,3.16-1.55,9.07"/>
          <path class="cls-4" d="M299.23,304.35s-.12,3.61-3.07,8.6"/>
          <line class="cls-4" x1="276.06" y1="321.61" x2="270.73" y2="341.89"/>
          <line class="cls-4" x1="283.27" y1="324.23" x2="278.63" y2="341.89"/>
        </g>
      </g>
    </g>
    <g class="cls-19">
      <path class="cls-37" d="M146.87,496.61l-8.84-6.84,3.41-4.42c1.34-1.73,1.7-4.03.97-6.09-.73-2.06-2.46-3.61-4.59-4.12l-46.95-11.06c-.49-.12-.99-.17-1.48-.17-.08,0-.15.01-.22.01-.1,0-.19-.01-.29-.01-1.98,0-3.87.92-5.1,2.5l-5.12,6.62c-1.54,2-1.78,4.71-.6,6.94l22.48,42.71c1.02,1.94,2.96,3.23,5.14,3.42.19.02.37.02.56.02,1.98,0,3.87-.92,5.1-2.5l3.4-4.41,9.16,7.09c1.17.91,2.56,1.35,3.94,1.35,1.92,0,3.83-.86,5.1-2.5l3.95-5.1,11.13-14.41c2.18-2.81,1.66-6.86-1.15-9.04Z"/>
      <g>
        <path class="cls-42" d="M136.34,481.41l-46.95-11.06,21.96,42.73,7.34-9.5,14.46,10.79,9.78-12.64-13.94-10.81,7.34-9.52Z"/>
        <path class="cls-4" d="M117.47,477.09l-28.59-6.74,22.48,42.71,7.33-9.48,14.46,10.79,5.76-7.44"/>
        <path class="cls-4" d="M142.75,501.96l-14.27-11.04,7.34-9.52-10.94-2.57"/>
        <path class="cls-28" d="M88.88,470.35l22.48,42.71-5.12,6.62-22.48-42.71,5.12-6.62Z"/>
        <path class="cls-28" d="M133.15,514.37l-5.3,6.84-14.27-11.04,5.12-6.61,14.45,10.81Z"/>
        <path class="cls-12" d="M130.71,488.03l-2.23,2.89"/>
      </g>
    </g>
  </g>
</svg>