<svg width="120" height="120" fill="none" xmlns="http://www.w3.org/2000/svg"><g clip-path="url('#clip0_617_186016')"><path d="M10.308 54.535c-1.827-6.37 1.857-13.016 8.227-14.843l23.07-6.615c6.371-1.827 13.016 1.857 14.843 8.227l6.615 23.07c1.827 6.372-1.856 13.017-8.227 14.844l-23.07 6.615c-6.37 1.827-13.016-1.857-14.843-8.228l-6.615-23.07Z" fill="#DDDEE1"/><g clip-path="url('#clip1_617_186016')" fill="#101214"><path fill-rule="evenodd" clip-rule="evenodd" d="m37.6 72.847-4.393-15.32 15.32-4.393 4.393 15.32-15.32 4.393Zm3.746-14.572-.078.914c-.112 1.312-.168 1.967-.462 2.537-.295.569-.797.994-1.803 1.844l-.37.313.196.686.48.07c1.303.187 1.955.281 2.506.608.552.327.947.853 1.737 1.907l.55.733.666-.19.078-.915c.112-1.311.168-1.967.462-2.536.294-.57.797-.995 1.802-1.844l.37-.313-.196-.687-.48-.07c-1.303-.187-1.955-.281-2.506-.608-.551-.326-.946-.853-1.736-1.906l-.55-.734-.666.19Z"/><path d="M39.445 48.667 28.947 46.07l-7.526 7.766 2.972 10.363 8.398 2.078-3.062-10.679 10.814-3.1-1.098-3.83Z"/></g></g><mask id="mask0_617_186016" style="mask-type:alpha" maskUnits="userSpaceOnUse" x="54" y="37" width="51" height="50"><path d="M99.749 76.342a30.762 30.762 0 0 0 2.526-4.834 31.086 31.086 0 0 0 1.688-5.255c2.26-10.183-1.88-18.778-10.481-24.138a34.602 34.602 0 0 0-10.098-4.194c-9.878-2.322-18.881.751-24.53 9.463a30.91 30.91 0 0 0-2.562 4.89 30.553 30.553 0 0 0-1.668 5.193c-2.237 10.115 1.89 18.699 10.492 24.112a33.959 33.959 0 0 0 4.972 2.566 32.53 32.53 0 0 0 5.105 1.679c9.868 2.36 18.907-.728 24.55-9.484l.006.002Z" fill="#E2E3E4"/></mask><g mask="url('#mask0_617_186016')"><path d="M78.8 58.898C60.47 41.915 54.733 14.251 66.525-9.19a57.531 57.531 0 0 1 10.84-14.976L31.116-47.43-29.297 72.675l85.229 42.87c1.564-13.097 5.39-26.15 11.661-38.615A117.373 117.373 0 0 1 78.802 58.9l-.002-.002Z" fill="#FCA700"/><path d="M78.8 58.898c18.48-24.465 45.49-40.11 74.611-44.813L77.365-24.167A57.532 57.532 0 0 0 66.524-9.19C54.733 14.25 60.47 41.917 78.8 58.898Z" fill="#AF59E0"/><path d="M217.609 46.377 174.94 24.915a57.501 57.501 0 0 1-5.561 17.632c-14.287 28.403-48.893 39.846-77.296 25.559A57.579 57.579 0 0 1 78.8 58.898a117.55 117.55 0 0 0-11.21 18.03c-6.269 12.464-10.094 25.518-11.66 38.616l101.266 50.938 60.413-120.105Z" fill="#6A9A23"/><path d="M78.8 58.898a57.58 57.58 0 0 0 13.283 9.208c28.403 14.287 63.01 2.844 77.296-25.56a57.53 57.53 0 0 0 5.562-17.631l-21.53-10.83C124.29 18.788 97.281 34.433 78.8 58.898Z" fill="#1868DB"/></g><path d="M62.771 64.314a12 12 0 0 1-3.559 12.275c-4.45-5.122-6.227-11.711-4.588-19.122a30.56 30.56 0 0 1 1.668-5.193 31.646 31.646 0 0 1 1.921-3.853l4.558 15.893Z" fill="#101214"/><path fill-rule="evenodd" clip-rule="evenodd" d="M92.104 65.786 69 61.773l.66-3.796 23.104 4.012-.66 3.797Z" fill="#fff"/><path fill-rule="evenodd" clip-rule="evenodd" d="M76.977 73.105 80.99 50l3.796.66-4.012 23.104-3.796-.66Z" fill="#fff"/><defs><clipPath id="clip0_617_186016"><path d="M10.308 54.535c-1.827-6.37 1.857-13.016 8.227-14.843l23.07-6.615c6.371-1.827 13.016 1.857 14.843 8.227l6.615 23.07c1.827 6.372-1.856 13.017-8.227 14.844l-23.07 6.615c-6.37 1.827-13.016-1.857-14.843-8.228l-6.615-23.07Z" fill="#fff"/></clipPath><clipPath id="clip1_617_186016"><path fill="#fff" transform="rotate(-16 161.067 -9.49)" d="M0 0h45v45H0z"/></clipPath></defs></svg>